ISO-10303-21;
HEADER;
/* Generated by software containing ST-Developer
 * from STEP Tools, Inc. (www.steptools.com) 
 */
/* OPTION: using custom renumber hook */

FILE_DESCRIPTION(
/* description */ ('STEP AP242 Edition 2',
'CAx-IF Rec.Pracs.---Representation and Presentation of Product Manufa
cturing Information (PMI)---4.0---2014-10-13',
'CAx-IF Rec.Pracs.---3D Tessellated Geometry---0.4---2014-09-14','2;1',
'CAx-IF Rec.Pracs.---User Defined Attributes---1.5---2016-08-15'),
/* implementation_level */ '2;1');

FILE_NAME(
/* name */ 'Nevis Battery Holder Lower',
/* time_stamp */ '2026-09-07T14:11:44Z',
/* author */ (''),
/* organization */ (''),
/* preprocessor_version */ 'ST-DEVELOPER v20',
/* originating_system */ 'ONSHAPE BY PTC INC, 1.220',
/* authorisation */ '  ');

FILE_SCHEMA (('AP242_MANAGED_MODEL_BASED_3D_ENGINEERING_MIM_LF { 1 0 10303 442 3 1 4 }'));
ENDSEC;

DATA;
#10=SHAPE_REPRESENTATION_RELATIONSHIP('','',#1086,#11);
#11=ADVANCED_BREP_SHAPE_REPRESENTATION('',(#1084),#1769);
#12=CONICAL_SURFACE('',#1167,0.004,0.872664625997165);
#13=CYLINDRICAL_SURFACE('',#1105,0.0015);
#14=CYLINDRICAL_SURFACE('',#1114,0.01025);
#15=CYLINDRICAL_SURFACE('',#1128,0.01025);
#16=CYLINDRICAL_SURFACE('',#1154,0.0015);
#17=CYLINDRICAL_SURFACE('',#1158,0.005);
#18=CYLINDRICAL_SURFACE('',#1160,0.0022);
#19=CYLINDRICAL_SURFACE('',#1162,0.005);
#20=CYLINDRICAL_SURFACE('',#1164,0.0022);
#21=CYLINDRICAL_SURFACE('',#1168,0.002);
#22=CYLINDRICAL_SURFACE('',#1169,0.002);
#23=CYLINDRICAL_SURFACE('',#1170,0.002);
#24=CYLINDRICAL_SURFACE('',#1171,0.002);
#25=CIRCLE('',#1089,0.002);
#26=CIRCLE('',#1090,0.002);
#27=CIRCLE('',#1092,0.002);
#28=CIRCLE('',#1093,0.002);
#29=CIRCLE('',#1095,0.004);
#30=CIRCLE('',#1096,0.005);
#31=CIRCLE('',#1098,0.005);
#32=CIRCLE('',#1099,0.0022);
#33=CIRCLE('',#1101,0.002);
#34=CIRCLE('',#1102,0.002);
#35=CIRCLE('',#1103,0.002);
#36=CIRCLE('',#1104,0.002);
#37=CIRCLE('',#1106,0.0015);
#38=CIRCLE('',#1107,0.0015);
#39=CIRCLE('',#1111,0.01025);
#40=CIRCLE('',#1113,0.01025);
#41=CIRCLE('',#1115,0.01025);
#42=CIRCLE('',#1116,0.01025);
#43=CIRCLE('',#1121,0.005);
#44=CIRCLE('',#1122,0.0022);
#45=CIRCLE('',#1125,0.005);
#46=CIRCLE('',#1126,0.0022);
#47=CIRCLE('',#1129,0.01025);
#48=CIRCLE('',#1130,0.01025);
#49=CIRCLE('',#1131,0.01025);
#50=CIRCLE('',#1132,0.01025);
#51=CIRCLE('',#1149,0.0015);
#52=CIRCLE('',#1155,0.0015);
#53=CIRCLE('',#1165,0.0022);
#54=ORIENTED_EDGE('',*,*,#352,.T.);
#55=ORIENTED_EDGE('',*,*,#353,.T.);
#56=ORIENTED_EDGE('',*,*,#354,.T.);
#57=ORIENTED_EDGE('',*,*,#355,.T.);
#58=ORIENTED_EDGE('',*,*,#356,.F.);
#59=ORIENTED_EDGE('',*,*,#357,.F.);
#60=ORIENTED_EDGE('',*,*,#358,.T.);
#61=ORIENTED_EDGE('',*,*,#359,.F.);
#62=ORIENTED_EDGE('',*,*,#360,.F.);
#63=ORIENTED_EDGE('',*,*,#361,.F.);
#64=ORIENTED_EDGE('',*,*,#362,.F.);
#65=ORIENTED_EDGE('',*,*,#363,.F.);
#66=ORIENTED_EDGE('',*,*,#364,.F.);
#67=ORIENTED_EDGE('',*,*,#365,.F.);
#68=ORIENTED_EDGE('',*,*,#366,.F.);
#69=ORIENTED_EDGE('',*,*,#367,.F.);
#70=ORIENTED_EDGE('',*,*,#368,.F.);
#71=ORIENTED_EDGE('',*,*,#369,.T.);
#72=ORIENTED_EDGE('',*,*,#370,.F.);
#73=ORIENTED_EDGE('',*,*,#371,.T.);
#74=ORIENTED_EDGE('',*,*,#372,.T.);
#75=ORIENTED_EDGE('',*,*,#373,.F.);
#76=ORIENTED_EDGE('',*,*,#374,.F.);
#77=ORIENTED_EDGE('',*,*,#375,.T.);
#78=ORIENTED_EDGE('',*,*,#376,.T.);
#79=ORIENTED_EDGE('',*,*,#377,.T.);
#80=ORIENTED_EDGE('',*,*,#378,.T.);
#81=ORIENTED_EDGE('',*,*,#379,.T.);
#82=ORIENTED_EDGE('',*,*,#380,.T.);
#83=ORIENTED_EDGE('',*,*,#381,.T.);
#84=ORIENTED_EDGE('',*,*,#382,.F.);
#85=ORIENTED_EDGE('',*,*,#383,.T.);
#86=ORIENTED_EDGE('',*,*,#384,.T.);
#87=ORIENTED_EDGE('',*,*,#385,.T.);
#88=ORIENTED_EDGE('',*,*,#386,.F.);
#89=ORIENTED_EDGE('',*,*,#387,.T.);
#90=ORIENTED_EDGE('',*,*,#388,.T.);
#91=ORIENTED_EDGE('',*,*,#372,.F.);
#92=ORIENTED_EDGE('',*,*,#389,.T.);
#93=ORIENTED_EDGE('',*,*,#390,.T.);
#94=ORIENTED_EDGE('',*,*,#391,.T.);
#95=ORIENTED_EDGE('',*,*,#352,.F.);
#96=ORIENTED_EDGE('',*,*,#392,.F.);
#97=ORIENTED_EDGE('',*,*,#393,.F.);
#98=ORIENTED_EDGE('',*,*,#394,.T.);
#99=ORIENTED_EDGE('',*,*,#395,.F.);
#100=ORIENTED_EDGE('',*,*,#396,.T.);
#101=ORIENTED_EDGE('',*,*,#386,.T.);
#102=ORIENTED_EDGE('',*,*,#397,.F.);
#103=ORIENTED_EDGE('',*,*,#398,.T.);
#104=ORIENTED_EDGE('',*,*,#399,.T.);
#105=ORIENTED_EDGE('',*,*,#356,.T.);
#106=ORIENTED_EDGE('',*,*,#400,.T.);
#107=ORIENTED_EDGE('',*,*,#401,.F.);
#108=ORIENTED_EDGE('',*,*,#390,.F.);
#109=ORIENTED_EDGE('',*,*,#402,.T.);
#110=ORIENTED_EDGE('',*,*,#403,.T.);
#111=ORIENTED_EDGE('',*,*,#404,.T.);
#112=ORIENTED_EDGE('',*,*,#395,.T.);
#113=ORIENTED_EDGE('',*,*,#405,.T.);
#114=ORIENTED_EDGE('',*,*,#406,.F.);
#115=ORIENTED_EDGE('',*,*,#407,.T.);
#116=ORIENTED_EDGE('',*,*,#408,.F.);
#117=ORIENTED_EDGE('',*,*,#409,.F.);
#118=ORIENTED_EDGE('',*,*,#410,.F.);
#119=ORIENTED_EDGE('',*,*,#411,.T.);
#120=ORIENTED_EDGE('',*,*,#375,.F.);
#121=ORIENTED_EDGE('',*,*,#412,.F.);
#122=ORIENTED_EDGE('',*,*,#413,.T.);
#123=ORIENTED_EDGE('',*,*,#414,.T.);
#124=ORIENTED_EDGE('',*,*,#383,.F.);
#125=ORIENTED_EDGE('',*,*,#415,.F.);
#126=ORIENTED_EDGE('',*,*,#416,.F.);
#127=ORIENTED_EDGE('',*,*,#417,.T.);
#128=ORIENTED_EDGE('',*,*,#418,.T.);
#129=ORIENTED_EDGE('',*,*,#419,.T.);
#130=ORIENTED_EDGE('',*,*,#420,.F.);
#131=ORIENTED_EDGE('',*,*,#421,.F.);
#132=ORIENTED_EDGE('',*,*,#422,.T.);
#133=ORIENTED_EDGE('',*,*,#423,.F.);
#134=ORIENTED_EDGE('',*,*,#418,.F.);
#135=ORIENTED_EDGE('',*,*,#424,.F.);
#136=ORIENTED_EDGE('',*,*,#425,.T.);
#137=ORIENTED_EDGE('',*,*,#426,.T.);
#138=ORIENTED_EDGE('',*,*,#427,.F.);
#139=ORIENTED_EDGE('',*,*,#428,.F.);
#140=ORIENTED_EDGE('',*,*,#429,.T.);
#141=ORIENTED_EDGE('',*,*,#424,.T.);
#142=ORIENTED_EDGE('',*,*,#430,.T.);
#143=ORIENTED_EDGE('',*,*,#422,.F.);
#144=ORIENTED_EDGE('',*,*,#427,.T.);
#145=ORIENTED_EDGE('',*,*,#417,.F.);
#146=ORIENTED_EDGE('',*,*,#431,.F.);
#147=ORIENTED_EDGE('',*,*,#429,.F.);
#148=ORIENTED_EDGE('',*,*,#432,.T.);
#149=ORIENTED_EDGE('',*,*,#433,.T.);
#150=ORIENTED_EDGE('',*,*,#434,.T.);
#151=ORIENTED_EDGE('',*,*,#435,.T.);
#152=ORIENTED_EDGE('',*,*,#436,.T.);
#153=ORIENTED_EDGE('',*,*,#437,.T.);
#154=ORIENTED_EDGE('',*,*,#438,.F.);
#155=ORIENTED_EDGE('',*,*,#439,.T.);
#156=ORIENTED_EDGE('',*,*,#432,.F.);
#157=ORIENTED_EDGE('',*,*,#428,.T.);
#158=ORIENTED_EDGE('',*,*,#431,.T.);
#159=ORIENTED_EDGE('',*,*,#416,.T.);
#160=ORIENTED_EDGE('',*,*,#440,.F.);
#161=ORIENTED_EDGE('',*,*,#441,.T.);
#162=ORIENTED_EDGE('',*,*,#442,.T.);
#163=ORIENTED_EDGE('',*,*,#438,.T.);
#164=ORIENTED_EDGE('',*,*,#443,.T.);
#165=ORIENTED_EDGE('',*,*,#358,.F.);
#166=ORIENTED_EDGE('',*,*,#444,.F.);
#167=ORIENTED_EDGE('',*,*,#445,.F.);
#168=ORIENTED_EDGE('',*,*,#446,.T.);
#169=ORIENTED_EDGE('',*,*,#384,.F.);
#170=ORIENTED_EDGE('',*,*,#414,.F.);
#171=ORIENTED_EDGE('',*,*,#447,.T.);
#172=ORIENTED_EDGE('',*,*,#439,.F.);
#173=ORIENTED_EDGE('',*,*,#413,.F.);
#174=ORIENTED_EDGE('',*,*,#448,.T.);
#175=ORIENTED_EDGE('',*,*,#425,.F.);
#176=ORIENTED_EDGE('',*,*,#433,.F.);
#177=ORIENTED_EDGE('',*,*,#448,.F.);
#178=ORIENTED_EDGE('',*,*,#412,.T.);
#179=ORIENTED_EDGE('',*,*,#374,.T.);
#180=ORIENTED_EDGE('',*,*,#449,.F.);
#181=ORIENTED_EDGE('',*,*,#450,.T.);
#182=ORIENTED_EDGE('',*,*,#451,.T.);
#183=ORIENTED_EDGE('',*,*,#368,.T.);
#184=ORIENTED_EDGE('',*,*,#452,.F.);
#185=ORIENTED_EDGE('',*,*,#436,.F.);
#186=ORIENTED_EDGE('',*,*,#453,.T.);
#187=ORIENTED_EDGE('',*,*,#454,.F.);
#188=ORIENTED_EDGE('',*,*,#455,.F.);
#189=ORIENTED_EDGE('',*,*,#419,.F.);
#190=ORIENTED_EDGE('',*,*,#423,.T.);
#191=ORIENTED_EDGE('',*,*,#430,.F.);
#192=ORIENTED_EDGE('',*,*,#426,.F.);
#193=ORIENTED_EDGE('',*,*,#456,.F.);
#194=ORIENTED_EDGE('',*,*,#457,.T.);
#195=ORIENTED_EDGE('',*,*,#458,.T.);
#196=ORIENTED_EDGE('',*,*,#359,.T.);
#197=ORIENTED_EDGE('',*,*,#443,.F.);
#198=ORIENTED_EDGE('',*,*,#437,.F.);
#199=ORIENTED_EDGE('',*,*,#452,.T.);
#200=ORIENTED_EDGE('',*,*,#367,.T.);
#201=ORIENTED_EDGE('',*,*,#459,.F.);
#202=ORIENTED_EDGE('',*,*,#460,.F.);
#203=ORIENTED_EDGE('',*,*,#441,.F.);
#204=ORIENTED_EDGE('',*,*,#461,.T.);
#205=ORIENTED_EDGE('',*,*,#462,.T.);
#206=ORIENTED_EDGE('',*,*,#454,.T.);
#207=ORIENTED_EDGE('',*,*,#463,.F.);
#208=ORIENTED_EDGE('',*,*,#461,.F.);
#209=ORIENTED_EDGE('',*,*,#440,.T.);
#210=ORIENTED_EDGE('',*,*,#421,.T.);
#211=ORIENTED_EDGE('',*,*,#460,.T.);
#212=ORIENTED_EDGE('',*,*,#434,.F.);
#213=ORIENTED_EDGE('',*,*,#442,.F.);
#214=ORIENTED_EDGE('',*,*,#462,.F.);
#215=ORIENTED_EDGE('',*,*,#420,.T.);
#216=ORIENTED_EDGE('',*,*,#455,.T.);
#217=ORIENTED_EDGE('',*,*,#463,.T.);
#218=ORIENTED_EDGE('',*,*,#453,.F.);
#219=ORIENTED_EDGE('',*,*,#435,.F.);
#220=ORIENTED_EDGE('',*,*,#366,.T.);
#221=ORIENTED_EDGE('',*,*,#464,.F.);
#222=ORIENTED_EDGE('',*,*,#465,.F.);
#223=ORIENTED_EDGE('',*,*,#459,.T.);
#224=ORIENTED_EDGE('',*,*,#365,.T.);
#225=ORIENTED_EDGE('',*,*,#466,.F.);
#226=ORIENTED_EDGE('',*,*,#467,.F.);
#227=ORIENTED_EDGE('',*,*,#464,.T.);
#228=ORIENTED_EDGE('',*,*,#364,.T.);
#229=ORIENTED_EDGE('',*,*,#468,.F.);
#230=ORIENTED_EDGE('',*,*,#469,.F.);
#231=ORIENTED_EDGE('',*,*,#466,.T.);
#232=ORIENTED_EDGE('',*,*,#408,.T.);
#233=ORIENTED_EDGE('',*,*,#363,.T.);
#234=ORIENTED_EDGE('',*,*,#470,.F.);
#235=ORIENTED_EDGE('',*,*,#471,.F.);
#236=ORIENTED_EDGE('',*,*,#468,.T.);
#237=ORIENTED_EDGE('',*,*,#362,.T.);
#238=ORIENTED_EDGE('',*,*,#472,.F.);
#239=ORIENTED_EDGE('',*,*,#473,.F.);
#240=ORIENTED_EDGE('',*,*,#470,.T.);
#241=ORIENTED_EDGE('',*,*,#361,.T.);
#242=ORIENTED_EDGE('',*,*,#474,.F.);
#243=ORIENTED_EDGE('',*,*,#475,.F.);
#244=ORIENTED_EDGE('',*,*,#472,.T.);
#245=ORIENTED_EDGE('',*,*,#360,.T.);
#246=ORIENTED_EDGE('',*,*,#458,.F.);
#247=ORIENTED_EDGE('',*,*,#476,.F.);
#248=ORIENTED_EDGE('',*,*,#474,.T.);
#249=ORIENTED_EDGE('',*,*,#457,.F.);
#250=ORIENTED_EDGE('',*,*,#465,.T.);
#251=ORIENTED_EDGE('',*,*,#467,.T.);
#252=ORIENTED_EDGE('',*,*,#469,.T.);
#253=ORIENTED_EDGE('',*,*,#471,.T.);
#254=ORIENTED_EDGE('',*,*,#473,.T.);
#255=ORIENTED_EDGE('',*,*,#475,.T.);
#256=ORIENTED_EDGE('',*,*,#476,.T.);
#257=ORIENTED_EDGE('',*,*,#382,.T.);
#258=ORIENTED_EDGE('',*,*,#477,.F.);
#259=ORIENTED_EDGE('',*,*,#478,.F.);
#260=ORIENTED_EDGE('',*,*,#415,.T.);
#261=ORIENTED_EDGE('',*,*,#381,.F.);
#262=ORIENTED_EDGE('',*,*,#479,.F.);
#263=ORIENTED_EDGE('',*,*,#480,.T.);
#264=ORIENTED_EDGE('',*,*,#477,.T.);
#265=ORIENTED_EDGE('',*,*,#380,.F.);
#266=ORIENTED_EDGE('',*,*,#481,.F.);
#267=ORIENTED_EDGE('',*,*,#482,.T.);
#268=ORIENTED_EDGE('',*,*,#479,.T.);
#269=ORIENTED_EDGE('',*,*,#483,.F.);
#270=ORIENTED_EDGE('',*,*,#379,.F.);
#271=ORIENTED_EDGE('',*,*,#484,.F.);
#272=ORIENTED_EDGE('',*,*,#485,.T.);
#273=ORIENTED_EDGE('',*,*,#481,.T.);
#274=ORIENTED_EDGE('',*,*,#378,.F.);
#275=ORIENTED_EDGE('',*,*,#486,.F.);
#276=ORIENTED_EDGE('',*,*,#487,.T.);
#277=ORIENTED_EDGE('',*,*,#484,.T.);
#278=ORIENTED_EDGE('',*,*,#377,.F.);
#279=ORIENTED_EDGE('',*,*,#488,.F.);
#280=ORIENTED_EDGE('',*,*,#489,.T.);
#281=ORIENTED_EDGE('',*,*,#486,.T.);
#282=ORIENTED_EDGE('',*,*,#376,.F.);
#283=ORIENTED_EDGE('',*,*,#411,.F.);
#284=ORIENTED_EDGE('',*,*,#490,.T.);
#285=ORIENTED_EDGE('',*,*,#488,.T.);
#286=ORIENTED_EDGE('',*,*,#410,.T.);
#287=ORIENTED_EDGE('',*,*,#478,.T.);
#288=ORIENTED_EDGE('',*,*,#480,.F.);
#289=ORIENTED_EDGE('',*,*,#482,.F.);
#290=ORIENTED_EDGE('',*,*,#485,.F.);
#291=ORIENTED_EDGE('',*,*,#487,.F.);
#292=ORIENTED_EDGE('',*,*,#489,.F.);
#293=ORIENTED_EDGE('',*,*,#490,.F.);
#294=ORIENTED_EDGE('',*,*,#491,.T.);
#295=ORIENTED_EDGE('',*,*,#483,.T.);
#296=ORIENTED_EDGE('',*,*,#409,.T.);
#297=ORIENTED_EDGE('',*,*,#354,.F.);
#298=ORIENTED_EDGE('',*,*,#492,.T.);
#299=ORIENTED_EDGE('',*,*,#406,.T.);
#300=ORIENTED_EDGE('',*,*,#493,.T.);
#301=ORIENTED_EDGE('',*,*,#491,.F.);
#302=ORIENTED_EDGE('',*,*,#403,.F.);
#303=ORIENTED_EDGE('',*,*,#494,.T.);
#304=ORIENTED_EDGE('',*,*,#370,.T.);
#305=ORIENTED_EDGE('',*,*,#495,.T.);
#306=ORIENTED_EDGE('',*,*,#398,.F.);
#307=ORIENTED_EDGE('',*,*,#496,.F.);
#308=ORIENTED_EDGE('',*,*,#445,.T.);
#309=ORIENTED_EDGE('',*,*,#497,.T.);
#310=ORIENTED_EDGE('',*,*,#399,.F.);
#311=ORIENTED_EDGE('',*,*,#497,.F.);
#312=ORIENTED_EDGE('',*,*,#444,.T.);
#313=ORIENTED_EDGE('',*,*,#357,.T.);
#314=ORIENTED_EDGE('',*,*,#447,.F.);
#315=ORIENTED_EDGE('',*,*,#401,.T.);
#316=ORIENTED_EDGE('',*,*,#397,.T.);
#317=ORIENTED_EDGE('',*,*,#385,.F.);
#318=ORIENTED_EDGE('',*,*,#446,.F.);
#319=ORIENTED_EDGE('',*,*,#496,.T.);
#320=ORIENTED_EDGE('',*,*,#393,.T.);
#321=ORIENTED_EDGE('',*,*,#498,.F.);
#322=ORIENTED_EDGE('',*,*,#450,.F.);
#323=ORIENTED_EDGE('',*,*,#499,.T.);
#324=ORIENTED_EDGE('',*,*,#394,.F.);
#325=ORIENTED_EDGE('',*,*,#499,.F.);
#326=ORIENTED_EDGE('',*,*,#449,.T.);
#327=ORIENTED_EDGE('',*,*,#373,.T.);
#328=ORIENTED_EDGE('',*,*,#500,.T.);
#329=ORIENTED_EDGE('',*,*,#456,.T.);
#330=ORIENTED_EDGE('',*,*,#392,.T.);
#331=ORIENTED_EDGE('',*,*,#369,.F.);
#332=ORIENTED_EDGE('',*,*,#451,.F.);
#333=ORIENTED_EDGE('',*,*,#498,.T.);
#334=ORIENTED_EDGE('',*,*,#500,.F.);
#335=ORIENTED_EDGE('',*,*,#388,.F.);
#336=ORIENTED_EDGE('',*,*,#402,.F.);
#337=ORIENTED_EDGE('',*,*,#389,.F.);
#338=ORIENTED_EDGE('',*,*,#371,.F.);
#339=ORIENTED_EDGE('',*,*,#494,.F.);
#340=ORIENTED_EDGE('',*,*,#404,.F.);
#341=ORIENTED_EDGE('',*,*,#495,.F.);
#342=ORIENTED_EDGE('',*,*,#387,.F.);
#343=ORIENTED_EDGE('',*,*,#396,.F.);
#344=ORIENTED_EDGE('',*,*,#407,.F.);
#345=ORIENTED_EDGE('',*,*,#492,.F.);
#346=ORIENTED_EDGE('',*,*,#353,.F.);
#347=ORIENTED_EDGE('',*,*,#391,.F.);
#348=ORIENTED_EDGE('',*,*,#405,.F.);
#349=ORIENTED_EDGE('',*,*,#400,.F.);
#350=ORIENTED_EDGE('',*,*,#355,.F.);
#351=ORIENTED_EDGE('',*,*,#493,.F.);
#352=EDGE_CURVE('',#501,#502,#602,.T.);
#353=EDGE_CURVE('',#502,#503,#25,.T.);
#354=EDGE_CURVE('',#503,#504,#603,.T.);
#355=EDGE_CURVE('',#504,#505,#26,.T.);
#356=EDGE_CURVE('',#506,#505,#604,.T.);
#357=EDGE_CURVE('',#507,#506,#605,.T.);
#358=EDGE_CURVE('',#507,#508,#606,.T.);
#359=EDGE_CURVE('',#509,#508,#607,.T.);
#360=EDGE_CURVE('',#510,#509,#608,.T.);
#361=EDGE_CURVE('',#511,#510,#609,.T.);
#362=EDGE_CURVE('',#512,#511,#610,.T.);
#363=EDGE_CURVE('',#513,#512,#611,.T.);
#364=EDGE_CURVE('',#514,#513,#612,.T.);
#365=EDGE_CURVE('',#515,#514,#613,.T.);
#366=EDGE_CURVE('',#516,#515,#614,.T.);
#367=EDGE_CURVE('',#517,#516,#615,.T.);
#368=EDGE_CURVE('',#518,#517,#616,.T.);
#369=EDGE_CURVE('',#518,#501,#617,.T.);
#370=EDGE_CURVE('',#519,#520,#618,.T.);
#371=EDGE_CURVE('',#519,#521,#27,.T.);
#372=EDGE_CURVE('',#521,#522,#619,.T.);
#373=EDGE_CURVE('',#523,#522,#620,.T.);
#374=EDGE_CURVE('',#524,#523,#621,.T.);
#375=EDGE_CURVE('',#524,#525,#622,.T.);
#376=EDGE_CURVE('',#525,#526,#623,.T.);
#377=EDGE_CURVE('',#526,#527,#624,.T.);
#378=EDGE_CURVE('',#527,#528,#625,.T.);
#379=EDGE_CURVE('',#528,#529,#626,.T.);
#380=EDGE_CURVE('',#529,#530,#627,.T.);
#381=EDGE_CURVE('',#530,#531,#628,.T.);
#382=EDGE_CURVE('',#532,#531,#629,.T.);
#383=EDGE_CURVE('',#532,#533,#630,.T.);
#384=EDGE_CURVE('',#533,#534,#631,.T.);
#385=EDGE_CURVE('',#534,#535,#632,.T.);
#386=EDGE_CURVE('',#536,#535,#633,.T.);
#387=EDGE_CURVE('',#536,#520,#28,.T.);
#388=EDGE_CURVE('',#537,#537,#29,.T.);
#389=EDGE_CURVE('',#521,#538,#634,.F.);
#390=EDGE_CURVE('',#538,#539,#635,.T.);
#391=EDGE_CURVE('',#539,#502,#636,.T.);
#392=EDGE_CURVE('',#540,#501,#637,.T.);
#393=EDGE_CURVE('',#541,#540,#30,.T.);
#394=EDGE_CURVE('',#541,#522,#638,.T.);
#395=EDGE_CURVE('',#542,#543,#639,.T.);
#396=EDGE_CURVE('',#542,#536,#640,.T.);
#397=EDGE_CURVE('',#544,#535,#641,.T.);
#398=EDGE_CURVE('',#544,#545,#31,.T.);
#399=EDGE_CURVE('',#545,#506,#642,.T.);
#400=EDGE_CURVE('',#505,#543,#643,.F.);
#401=EDGE_CURVE('',#546,#546,#32,.T.);
#402=EDGE_CURVE('',#538,#547,#33,.F.);
#403=EDGE_CURVE('',#547,#548,#644,.T.);
#404=EDGE_CURVE('',#548,#542,#34,.F.);
#405=EDGE_CURVE('',#543,#549,#35,.F.);
#406=EDGE_CURVE('',#550,#549,#645,.T.);
#407=EDGE_CURVE('',#550,#539,#36,.F.);
#408=EDGE_CURVE('',#551,#551,#37,.T.);
#409=EDGE_CURVE('',#552,#552,#38,.F.);
#410=EDGE_CURVE('',#553,#554,#646,.T.);
#411=EDGE_CURVE('',#553,#525,#647,.T.);
#412=EDGE_CURVE('',#555,#524,#648,.T.);
#413=EDGE_CURVE('',#555,#556,#649,.T.);
#414=EDGE_CURVE('',#556,#533,#650,.T.);
#415=EDGE_CURVE('',#554,#532,#651,.T.);
#416=EDGE_CURVE('',#557,#558,#652,.T.);
#417=EDGE_CURVE('',#557,#559,#653,.T.);
#418=EDGE_CURVE('',#559,#560,#654,.T.);
#419=EDGE_CURVE('',#560,#561,#655,.T.);
#420=EDGE_CURVE('',#562,#561,#656,.T.);
#421=EDGE_CURVE('',#558,#562,#657,.T.);
#422=EDGE_CURVE('',#559,#563,#39,.T.);
#423=EDGE_CURVE('',#560,#563,#658,.T.);
#424=EDGE_CURVE('',#564,#565,#40,.T.);
#425=EDGE_CURVE('',#564,#566,#659,.T.);
#426=EDGE_CURVE('',#566,#565,#660,.T.);
#427=EDGE_CURVE('',#567,#559,#41,.T.);
#428=EDGE_CURVE('',#568,#567,#661,.T.);
#429=EDGE_CURVE('',#568,#564,#42,.T.);
#430=EDGE_CURVE('',#565,#563,#662,.T.);
#431=EDGE_CURVE('',#567,#557,#663,.T.);
#432=EDGE_CURVE('',#568,#569,#664,.T.);
#433=EDGE_CURVE('',#569,#564,#665,.T.);
#434=EDGE_CURVE('',#570,#571,#666,.T.);
#435=EDGE_CURVE('',#571,#572,#667,.T.);
#436=EDGE_CURVE('',#572,#573,#668,.T.);
#437=EDGE_CURVE('',#573,#574,#669,.T.);
#438=EDGE_CURVE('',#570,#574,#670,.T.);
#439=EDGE_CURVE('',#556,#569,#671,.T.);
#440=EDGE_CURVE('',#575,#558,#672,.T.);
#441=EDGE_CURVE('',#575,#576,#673,.T.);
#442=EDGE_CURVE('',#576,#570,#674,.T.);
#443=EDGE_CURVE('',#574,#508,#675,.T.);
#444=EDGE_CURVE('',#577,#507,#676,.T.);
#445=EDGE_CURVE('',#578,#577,#43,.T.);
#446=EDGE_CURVE('',#578,#534,#677,.T.);
#447=EDGE_CURVE('',#579,#579,#44,.T.);
#448=EDGE_CURVE('',#555,#566,#678,.T.);
#449=EDGE_CURVE('',#580,#523,#679,.T.);
#450=EDGE_CURVE('',#580,#581,#45,.T.);
#451=EDGE_CURVE('',#581,#518,#680,.T.);
#452=EDGE_CURVE('',#573,#517,#681,.T.);
#453=EDGE_CURVE('',#572,#582,#682,.T.);
#454=EDGE_CURVE('',#583,#582,#683,.T.);
#455=EDGE_CURVE('',#561,#583,#684,.T.);
#456=EDGE_CURVE('',#584,#584,#46,.T.);
#457=EDGE_CURVE('',#585,#586,#685,.T.);
#458=EDGE_CURVE('',#586,#509,#686,.T.);
#459=EDGE_CURVE('',#585,#516,#687,.T.);
#460=EDGE_CURVE('',#576,#571,#47,.T.);
#461=EDGE_CURVE('',#575,#562,#48,.T.);
#462=EDGE_CURVE('',#562,#583,#49,.T.);
#463=EDGE_CURVE('',#571,#582,#50,.T.);
#464=EDGE_CURVE('',#587,#515,#688,.T.);
#465=EDGE_CURVE('',#585,#587,#689,.T.);
#466=EDGE_CURVE('',#588,#514,#690,.T.);
#467=EDGE_CURVE('',#587,#588,#691,.T.);
#468=EDGE_CURVE('',#589,#513,#692,.T.);
#469=EDGE_CURVE('',#588,#589,#693,.T.);
#470=EDGE_CURVE('',#590,#512,#694,.T.);
#471=EDGE_CURVE('',#589,#590,#695,.T.);
#472=EDGE_CURVE('',#591,#511,#696,.T.);
#473=EDGE_CURVE('',#590,#591,#697,.T.);
#474=EDGE_CURVE('',#592,#510,#698,.T.);
#475=EDGE_CURVE('',#591,#592,#699,.T.);
#476=EDGE_CURVE('',#592,#586,#700,.T.);
#477=EDGE_CURVE('',#593,#531,#701,.T.);
#478=EDGE_CURVE('',#554,#593,#702,.T.);
#479=EDGE_CURVE('',#594,#530,#703,.T.);
#480=EDGE_CURVE('',#594,#593,#704,.T.);
#481=EDGE_CURVE('',#595,#529,#705,.T.);
#482=EDGE_CURVE('',#595,#594,#706,.T.);
#483=EDGE_CURVE('',#596,#596,#51,.T.);
#484=EDGE_CURVE('',#597,#528,#707,.T.);
#485=EDGE_CURVE('',#597,#595,#708,.T.);
#486=EDGE_CURVE('',#598,#527,#709,.T.);
#487=EDGE_CURVE('',#598,#597,#710,.T.);
#488=EDGE_CURVE('',#599,#526,#711,.T.);
#489=EDGE_CURVE('',#599,#598,#712,.T.);
#490=EDGE_CURVE('',#553,#599,#713,.T.);
#491=EDGE_CURVE('',#600,#600,#52,.F.);
#492=EDGE_CURVE('',#503,#550,#714,.F.);
#493=EDGE_CURVE('',#549,#504,#715,.T.);
#494=EDGE_CURVE('',#547,#519,#716,.T.);
#495=EDGE_CURVE('',#520,#548,#717,.F.);
#496=EDGE_CURVE('',#578,#544,#718,.T.);
#497=EDGE_CURVE('',#577,#545,#719,.T.);
#498=EDGE_CURVE('',#581,#540,#720,.T.);
#499=EDGE_CURVE('',#580,#541,#721,.T.);
#500=EDGE_CURVE('',#601,#601,#53,.F.);
#501=VERTEX_POINT('',#1465);
#502=VERTEX_POINT('',#1466);
#503=VERTEX_POINT('',#1468);
#504=VERTEX_POINT('',#1470);
#505=VERTEX_POINT('',#1472);
#506=VERTEX_POINT('',#1474);
#507=VERTEX_POINT('',#1476);
#508=VERTEX_POINT('',#1478);
#509=VERTEX_POINT('',#1480);
#510=VERTEX_POINT('',#1482);
#511=VERTEX_POINT('',#1484);
#512=VERTEX_POINT('',#1486);
#513=VERTEX_POINT('',#1488);
#514=VERTEX_POINT('',#1490);
#515=VERTEX_POINT('',#1492);
#516=VERTEX_POINT('',#1494);
#517=VERTEX_POINT('',#1496);
#518=VERTEX_POINT('',#1498);
#519=VERTEX_POINT('',#1502);
#520=VERTEX_POINT('',#1503);
#521=VERTEX_POINT('',#1505);
#522=VERTEX_POINT('',#1507);
#523=VERTEX_POINT('',#1509);
#524=VERTEX_POINT('',#1511);
#525=VERTEX_POINT('',#1513);
#526=VERTEX_POINT('',#1515);
#527=VERTEX_POINT('',#1517);
#528=VERTEX_POINT('',#1519);
#529=VERTEX_POINT('',#1521);
#530=VERTEX_POINT('',#1523);
#531=VERTEX_POINT('',#1525);
#532=VERTEX_POINT('',#1527);
#533=VERTEX_POINT('',#1529);
#534=VERTEX_POINT('',#1531);
#535=VERTEX_POINT('',#1533);
#536=VERTEX_POINT('',#1535);
#537=VERTEX_POINT('',#1539);
#538=VERTEX_POINT('',#1541);
#539=VERTEX_POINT('',#1543);
#540=VERTEX_POINT('',#1546);
#541=VERTEX_POINT('',#1548);
#542=VERTEX_POINT('',#1552);
#543=VERTEX_POINT('',#1553);
#544=VERTEX_POINT('',#1556);
#545=VERTEX_POINT('',#1558);
#546=VERTEX_POINT('',#1562);
#547=VERTEX_POINT('',#1565);
#548=VERTEX_POINT('',#1567);
#549=VERTEX_POINT('',#1570);
#550=VERTEX_POINT('',#1572);
#551=VERTEX_POINT('',#1576);
#552=VERTEX_POINT('',#1578);
#553=VERTEX_POINT('',#1581);
#554=VERTEX_POINT('',#1582);
#555=VERTEX_POINT('',#1585);
#556=VERTEX_POINT('',#1587);
#557=VERTEX_POINT('',#1592);
#558=VERTEX_POINT('',#1593);
#559=VERTEX_POINT('',#1595);
#560=VERTEX_POINT('',#1597);
#561=VERTEX_POINT('',#1599);
#562=VERTEX_POINT('',#1601);
#563=VERTEX_POINT('',#1605);
#564=VERTEX_POINT('',#1609);
#565=VERTEX_POINT('',#1610);
#566=VERTEX_POINT('',#1612);
#567=VERTEX_POINT('',#1616);
#568=VERTEX_POINT('',#1618);
#569=VERTEX_POINT('',#1625);
#570=VERTEX_POINT('',#1629);
#571=VERTEX_POINT('',#1630);
#572=VERTEX_POINT('',#1632);
#573=VERTEX_POINT('',#1634);
#574=VERTEX_POINT('',#1636);
#575=VERTEX_POINT('',#1641);
#576=VERTEX_POINT('',#1643);
#577=VERTEX_POINT('',#1647);
#578=VERTEX_POINT('',#1649);
#579=VERTEX_POINT('',#1652);
#580=VERTEX_POINT('',#1657);
#581=VERTEX_POINT('',#1659);
#582=VERTEX_POINT('',#1663);
#583=VERTEX_POINT('',#1665);
#584=VERTEX_POINT('',#1668);
#585=VERTEX_POINT('',#1671);
#586=VERTEX_POINT('',#1672);
#587=VERTEX_POINT('',#1686);
#588=VERTEX_POINT('',#1690);
#589=VERTEX_POINT('',#1694);
#590=VERTEX_POINT('',#1698);
#591=VERTEX_POINT('',#1702);
#592=VERTEX_POINT('',#1706);
#593=VERTEX_POINT('',#1713);
#594=VERTEX_POINT('',#1717);
#595=VERTEX_POINT('',#1721);
#596=VERTEX_POINT('',#1725);
#597=VERTEX_POINT('',#1727);
#598=VERTEX_POINT('',#1731);
#599=VERTEX_POINT('',#1735);
#600=VERTEX_POINT('',#1742);
#601=VERTEX_POINT('',#1761);
#602=LINE('',#1464,#722);
#603=LINE('',#1469,#723);
#604=LINE('',#1473,#724);
#605=LINE('',#1475,#725);
#606=LINE('',#1477,#726);
#607=LINE('',#1479,#727);
#608=LINE('',#1481,#728);
#609=LINE('',#1483,#729);
#610=LINE('',#1485,#730);
#611=LINE('',#1487,#731);
#612=LINE('',#1489,#732);
#613=LINE('',#1491,#733);
#614=LINE('',#1493,#734);
#615=LINE('',#1495,#735);
#616=LINE('',#1497,#736);
#617=LINE('',#1499,#737);
#618=LINE('',#1501,#738);
#619=LINE('',#1506,#739);
#620=LINE('',#1508,#740);
#621=LINE('',#1510,#741);
#622=LINE('',#1512,#742);
#623=LINE('',#1514,#743);
#624=LINE('',#1516,#744);
#625=LINE('',#1518,#745);
#626=LINE('',#1520,#746);
#627=LINE('',#1522,#747);
#628=LINE('',#1524,#748);
#629=LINE('',#1526,#749);
#630=LINE('',#1528,#750);
#631=LINE('',#1530,#751);
#632=LINE('',#1532,#752);
#633=LINE('',#1534,#753);
#634=LINE('',#1540,#754);
#635=LINE('',#1542,#755);
#636=LINE('',#1544,#756);
#637=LINE('',#1545,#757);
#638=LINE('',#1549,#758);
#639=LINE('',#1551,#759);
#640=LINE('',#1554,#760);
#641=LINE('',#1555,#761);
#642=LINE('',#1559,#762);
#643=LINE('',#1560,#763);
#644=LINE('',#1566,#764);
#645=LINE('',#1571,#765);
#646=LINE('',#1580,#766);
#647=LINE('',#1583,#767);
#648=LINE('',#1584,#768);
#649=LINE('',#1586,#769);
#650=LINE('',#1588,#770);
#651=LINE('',#1589,#771);
#652=LINE('',#1591,#772);
#653=LINE('',#1594,#773);
#654=LINE('',#1596,#774);
#655=LINE('',#1598,#775);
#656=LINE('',#1600,#776);
#657=LINE('',#1602,#777);
#658=LINE('',#1606,#778);
#659=LINE('',#1611,#779);
#660=LINE('',#1613,#780);
#661=LINE('',#1617,#781);
#662=LINE('',#1620,#782);
#663=LINE('',#1622,#783);
#664=LINE('',#1624,#784);
#665=LINE('',#1626,#785);
#666=LINE('',#1628,#786);
#667=LINE('',#1631,#787);
#668=LINE('',#1633,#788);
#669=LINE('',#1635,#789);
#670=LINE('',#1637,#790);
#671=LINE('',#1639,#791);
#672=LINE('',#1640,#792);
#673=LINE('',#1642,#793);
#674=LINE('',#1644,#794);
#675=LINE('',#1645,#795);
#676=LINE('',#1646,#796);
#677=LINE('',#1650,#797);
#678=LINE('',#1654,#798);
#679=LINE('',#1656,#799);
#680=LINE('',#1660,#800);
#681=LINE('',#1661,#801);
#682=LINE('',#1662,#802);
#683=LINE('',#1664,#803);
#684=LINE('',#1666,#804);
#685=LINE('',#1670,#805);
#686=LINE('',#1673,#806);
#687=LINE('',#1674,#807);
#688=LINE('',#1685,#808);
#689=LINE('',#1687,#809);
#690=LINE('',#1689,#810);
#691=LINE('',#1691,#811);
#692=LINE('',#1693,#812);
#693=LINE('',#1695,#813);
#694=LINE('',#1697,#814);
#695=LINE('',#1699,#815);
#696=LINE('',#1701,#816);
#697=LINE('',#1703,#817);
#698=LINE('',#1705,#818);
#699=LINE('',#1707,#819);
#700=LINE('',#1709,#820);
#701=LINE('',#1712,#821);
#702=LINE('',#1714,#822);
#703=LINE('',#1716,#823);
#704=LINE('',#1718,#824);
#705=LINE('',#1720,#825);
#706=LINE('',#1722,#826);
#707=LINE('',#1726,#827);
#708=LINE('',#1728,#828);
#709=LINE('',#1730,#829);
#710=LINE('',#1732,#830);
#711=LINE('',#1734,#831);
#712=LINE('',#1736,#832);
#713=LINE('',#1738,#833);
#714=LINE('',#1744,#834);
#715=LINE('',#1745,#835);
#716=LINE('',#1747,#836);
#717=LINE('',#1748,#837);
#718=LINE('',#1750,#838);
#719=LINE('',#1751,#839);
#720=LINE('',#1756,#840);
#721=LINE('',#1757,#841);
#722=VECTOR('',#1176,1.);
#723=VECTOR('',#1179,1.);
#724=VECTOR('',#1182,1.);
#725=VECTOR('',#1183,1.);
#726=VECTOR('',#1184,1.);
#727=VECTOR('',#1185,1.);
#728=VECTOR('',#1186,1.);
#729=VECTOR('',#1187,1.);
#730=VECTOR('',#1188,1.);
#731=VECTOR('',#1189,1.);
#732=VECTOR('',#1190,1.);
#733=VECTOR('',#1191,1.);
#734=VECTOR('',#1192,1.);
#735=VECTOR('',#1193,1.);
#736=VECTOR('',#1194,1.);
#737=VECTOR('',#1195,1.);
#738=VECTOR('',#1198,1.);
#739=VECTOR('',#1201,1.);
#740=VECTOR('',#1202,1.);
#741=VECTOR('',#1203,1.);
#742=VECTOR('',#1204,1.);
#743=VECTOR('',#1205,1.);
#744=VECTOR('',#1206,1.);
#745=VECTOR('',#1207,1.);
#746=VECTOR('',#1208,1.);
#747=VECTOR('',#1209,1.);
#748=VECTOR('',#1210,1.);
#749=VECTOR('',#1211,1.);
#750=VECTOR('',#1212,1.);
#751=VECTOR('',#1213,1.);
#752=VECTOR('',#1214,1.);
#753=VECTOR('',#1215,1.);
#754=VECTOR('',#1222,1.);
#755=VECTOR('',#1223,1.);
#756=VECTOR('',#1224,1.);
#757=VECTOR('',#1225,1.);
#758=VECTOR('',#1228,1.);
#759=VECTOR('',#1231,1.);
#760=VECTOR('',#1232,1.);
#761=VECTOR('',#1233,1.);
#762=VECTOR('',#1236,1.);
#763=VECTOR('',#1237,1.);
#764=VECTOR('',#1244,1.);
#765=VECTOR('',#1249,1.);
#766=VECTOR('',#1260,1.);
#767=VECTOR('',#1261,1.);
#768=VECTOR('',#1262,1.);
#769=VECTOR('',#1263,1.);
#770=VECTOR('',#1264,1.);
#771=VECTOR('',#1265,1.);
#772=VECTOR('',#1268,1.);
#773=VECTOR('',#1269,1.);
#774=VECTOR('',#1270,1.);
#775=VECTOR('',#1271,1.);
#776=VECTOR('',#1272,1.);
#777=VECTOR('',#1273,1.);
#778=VECTOR('',#1278,1.);
#779=VECTOR('',#1283,1.);
#780=VECTOR('',#1284,1.);
#781=VECTOR('',#1289,1.);
#782=VECTOR('',#1292,1.);
#783=VECTOR('',#1295,1.);
#784=VECTOR('',#1298,1.);
#785=VECTOR('',#1299,1.);
#786=VECTOR('',#1302,1.);
#787=VECTOR('',#1303,1.);
#788=VECTOR('',#1304,1.);
#789=VECTOR('',#1305,1.);
#790=VECTOR('',#1306,1.);
#791=VECTOR('',#1309,1.);
#792=VECTOR('',#1310,1.);
#793=VECTOR('',#1311,1.);
#794=VECTOR('',#1312,1.);
#795=VECTOR('',#1313,1.);
#796=VECTOR('',#1314,1.);
#797=VECTOR('',#1317,1.);
#798=VECTOR('',#1322,1.);
#799=VECTOR('',#1325,1.);
#800=VECTOR('',#1328,1.);
#801=VECTOR('',#1329,1.);
#802=VECTOR('',#1330,1.);
#803=VECTOR('',#1331,1.);
#804=VECTOR('',#1332,1.);
#805=VECTOR('',#1337,1.);
#806=VECTOR('',#1338,1.);
#807=VECTOR('',#1339,1.);
#808=VECTOR('',#1360,1.);
#809=VECTOR('',#1361,1.);
#810=VECTOR('',#1364,1.);
#811=VECTOR('',#1365,1.);
#812=VECTOR('',#1368,1.);
#813=VECTOR('',#1369,1.);
#814=VECTOR('',#1372,1.);
#815=VECTOR('',#1373,1.);
#816=VECTOR('',#1376,1.);
#817=VECTOR('',#1377,1.);
#818=VECTOR('',#1380,1.);
#819=VECTOR('',#1381,1.);
#820=VECTOR('',#1384,1.);
#821=VECTOR('',#1389,1.);
#822=VECTOR('',#1390,1.);
#823=VECTOR('',#1393,1.);
#824=VECTOR('',#1394,1.);
#825=VECTOR('',#1397,1.);
#826=VECTOR('',#1398,1.);
#827=VECTOR('',#1403,1.);
#828=VECTOR('',#1404,1.);
#829=VECTOR('',#1407,1.);
#830=VECTOR('',#1408,1.);
#831=VECTOR('',#1411,1.);
#832=VECTOR('',#1412,1.);
#833=VECTOR('',#1415,1.);
#834=VECTOR('',#1424,1.);
#835=VECTOR('',#1425,1.);
#836=VECTOR('',#1428,1.);
#837=VECTOR('',#1429,1.);
#838=VECTOR('',#1432,1.);
#839=VECTOR('',#1433,1.);
#840=VECTOR('',#1442,1.);
#841=VECTOR('',#1443,1.);
#842=EDGE_LOOP('',(#54,#55,#56,#57,#58,#59,#60,#61,#62,#63,#64,#65,#66,
#67,#68,#69,#70,#71));
#843=EDGE_LOOP('',(#72,#73,#74,#75,#76,#77,#78,#79,#80,#81,#82,#83,#84,
#85,#86,#87,#88,#89));
#844=EDGE_LOOP('',(#90));
#845=EDGE_LOOP('',(#91,#92,#93,#94,#95,#96,#97,#98));
#846=EDGE_LOOP('',(#99,#100,#101,#102,#103,#104,#105,#106));
#847=EDGE_LOOP('',(#107));
#848=EDGE_LOOP('',(#108,#109,#110,#111,#112,#113,#114,#115));
#849=EDGE_LOOP('',(#116));
#850=EDGE_LOOP('',(#117));
#851=EDGE_LOOP('',(#118,#119,#120,#121,#122,#123,#124,#125));
#852=EDGE_LOOP('',(#126,#127,#128,#129,#130,#131));
#853=EDGE_LOOP('',(#132,#133,#134));
#854=EDGE_LOOP('',(#135,#136,#137));
#855=EDGE_LOOP('',(#138,#139,#140,#141,#142,#143));
#856=EDGE_LOOP('',(#144,#145,#146));
#857=EDGE_LOOP('',(#147,#148,#149));
#858=EDGE_LOOP('',(#150,#151,#152,#153,#154));
#859=EDGE_LOOP('',(#155,#156,#157,#158,#159,#160,#161,#162,#163,#164,#165,
#166,#167,#168,#169,#170));
#860=EDGE_LOOP('',(#171));
#861=EDGE_LOOP('',(#172,#173,#174,#175,#176));
#862=EDGE_LOOP('',(#177,#178,#179,#180,#181,#182,#183,#184,#185,#186,#187,
#188,#189,#190,#191,#192));
#863=EDGE_LOOP('',(#193));
#864=EDGE_LOOP('',(#194,#195,#196,#197,#198,#199,#200,#201));
#865=EDGE_LOOP('',(#202,#203,#204,#205,#206,#207));
#866=EDGE_LOOP('',(#208,#209,#210));
#867=EDGE_LOOP('',(#211,#212,#213));
#868=EDGE_LOOP('',(#214,#215,#216));
#869=EDGE_LOOP('',(#217,#218,#219));
#870=EDGE_LOOP('',(#220,#221,#222,#223));
#871=EDGE_LOOP('',(#224,#225,#226,#227));
#872=EDGE_LOOP('',(#228,#229,#230,#231));
#873=EDGE_LOOP('',(#232));
#874=EDGE_LOOP('',(#233,#234,#235,#236));
#875=EDGE_LOOP('',(#237,#238,#239,#240));
#876=EDGE_LOOP('',(#241,#242,#243,#244));
#877=EDGE_LOOP('',(#245,#246,#247,#248));
#878=EDGE_LOOP('',(#249,#250,#251,#252,#253,#254,#255,#256));
#879=EDGE_LOOP('',(#257,#258,#259,#260));
#880=EDGE_LOOP('',(#261,#262,#263,#264));
#881=EDGE_LOOP('',(#265,#266,#267,#268));
#882=EDGE_LOOP('',(#269));
#883=EDGE_LOOP('',(#270,#271,#272,#273));
#884=EDGE_LOOP('',(#274,#275,#276,#277));
#885=EDGE_LOOP('',(#278,#279,#280,#281));
#886=EDGE_LOOP('',(#282,#283,#284,#285));
#887=EDGE_LOOP('',(#286,#287,#288,#289,#290,#291,#292,#293));
#888=EDGE_LOOP('',(#294));
#889=EDGE_LOOP('',(#295));
#890=EDGE_LOOP('',(#296));
#891=EDGE_LOOP('',(#297,#298,#299,#300));
#892=EDGE_LOOP('',(#301));
#893=EDGE_LOOP('',(#302,#303,#304,#305));
#894=EDGE_LOOP('',(#306,#307,#308,#309));
#895=EDGE_LOOP('',(#310,#311,#312,#313));
#896=EDGE_LOOP('',(#314));
#897=EDGE_LOOP('',(#315));
#898=EDGE_LOOP('',(#316,#317,#318,#319));
#899=EDGE_LOOP('',(#320,#321,#322,#323));
#900=EDGE_LOOP('',(#324,#325,#326,#327));
#901=EDGE_LOOP('',(#328));
#902=EDGE_LOOP('',(#329));
#903=EDGE_LOOP('',(#330,#331,#332,#333));
#904=EDGE_LOOP('',(#334));
#905=EDGE_LOOP('',(#335));
#906=EDGE_LOOP('',(#336,#337,#338,#339));
#907=EDGE_LOOP('',(#340,#341,#342,#343));
#908=EDGE_LOOP('',(#344,#345,#346,#347));
#909=EDGE_LOOP('',(#348,#349,#350,#351));
#910=FACE_BOUND('',#842,.T.);
#911=FACE_BOUND('',#843,.T.);
#912=FACE_BOUND('',#844,.T.);
#913=FACE_BOUND('',#845,.T.);
#914=FACE_BOUND('',#846,.T.);
#915=FACE_BOUND('',#847,.T.);
#916=FACE_BOUND('',#848,.T.);
#917=FACE_BOUND('',#849,.T.);
#918=FACE_BOUND('',#850,.T.);
#919=FACE_BOUND('',#851,.T.);
#920=FACE_BOUND('',#852,.T.);
#921=FACE_BOUND('',#853,.T.);
#922=FACE_BOUND('',#854,.T.);
#923=FACE_BOUND('',#855,.T.);
#924=FACE_BOUND('',#856,.T.);
#925=FACE_BOUND('',#857,.T.);
#926=FACE_BOUND('',#858,.T.);
#927=FACE_BOUND('',#859,.T.);
#928=FACE_BOUND('',#860,.T.);
#929=FACE_BOUND('',#861,.T.);
#930=FACE_BOUND('',#862,.T.);
#931=FACE_BOUND('',#863,.T.);
#932=FACE_BOUND('',#864,.T.);
#933=FACE_BOUND('',#865,.T.);
#934=FACE_BOUND('',#866,.T.);
#935=FACE_BOUND('',#867,.T.);
#936=FACE_BOUND('',#868,.T.);
#937=FACE_BOUND('',#869,.T.);
#938=FACE_BOUND('',#870,.T.);
#939=FACE_BOUND('',#871,.T.);
#940=FACE_BOUND('',#872,.T.);
#941=FACE_BOUND('',#873,.T.);
#942=FACE_BOUND('',#874,.T.);
#943=FACE_BOUND('',#875,.T.);
#944=FACE_BOUND('',#876,.T.);
#945=FACE_BOUND('',#877,.T.);
#946=FACE_BOUND('',#878,.T.);
#947=FACE_BOUND('',#879,.T.);
#948=FACE_BOUND('',#880,.T.);
#949=FACE_BOUND('',#881,.T.);
#950=FACE_BOUND('',#882,.T.);
#951=FACE_BOUND('',#883,.T.);
#952=FACE_BOUND('',#884,.T.);
#953=FACE_BOUND('',#885,.T.);
#954=FACE_BOUND('',#886,.T.);
#955=FACE_BOUND('',#887,.T.);
#956=FACE_BOUND('',#888,.T.);
#957=FACE_BOUND('',#889,.T.);
#958=FACE_BOUND('',#890,.T.);
#959=FACE_BOUND('',#891,.T.);
#960=FACE_BOUND('',#892,.T.);
#961=FACE_BOUND('',#893,.T.);
#962=FACE_BOUND('',#894,.T.);
#963=FACE_BOUND('',#895,.T.);
#964=FACE_BOUND('',#896,.T.);
#965=FACE_BOUND('',#897,.T.);
#966=FACE_BOUND('',#898,.T.);
#967=FACE_BOUND('',#899,.T.);
#968=FACE_BOUND('',#900,.T.);
#969=FACE_BOUND('',#901,.T.);
#970=FACE_BOUND('',#902,.T.);
#971=FACE_BOUND('',#903,.T.);
#972=FACE_BOUND('',#904,.T.);
#973=FACE_BOUND('',#905,.T.);
#974=FACE_BOUND('',#906,.T.);
#975=FACE_BOUND('',#907,.T.);
#976=FACE_BOUND('',#908,.T.);
#977=FACE_BOUND('',#909,.T.);
#978=PLANE('',#1088);
#979=PLANE('',#1091);
#980=PLANE('',#1094);
#981=PLANE('',#1097);
#982=PLANE('',#1100);
#983=PLANE('',#1108);
#984=PLANE('',#1109);
#985=PLANE('',#1110);
#986=PLANE('',#1112);
#987=PLANE('',#1117);
#988=PLANE('',#1118);
#989=PLANE('',#1119);
#990=PLANE('',#1120);
#991=PLANE('',#1123);
#992=PLANE('',#1124);
#993=PLANE('',#1127);
#994=PLANE('',#1133);
#995=PLANE('',#1134);
#996=PLANE('',#1135);
#997=PLANE('',#1136);
#998=PLANE('',#1137);
#999=PLANE('',#1138);
#1000=PLANE('',#1139);
#1001=PLANE('',#1140);
#1002=PLANE('',#1141);
#1003=PLANE('',#1142);
#1004=PLANE('',#1143);
#1005=PLANE('',#1144);
#1006=PLANE('',#1145);
#1007=PLANE('',#1146);
#1008=PLANE('',#1147);
#1009=PLANE('',#1148);
#1010=PLANE('',#1150);
#1011=PLANE('',#1151);
#1012=PLANE('',#1152);
#1013=PLANE('',#1153);
#1014=PLANE('',#1156);
#1015=PLANE('',#1157);
#1016=PLANE('',#1159);
#1017=PLANE('',#1161);
#1018=PLANE('',#1163);
#1019=PLANE('',#1166);
#1020=ADVANCED_FACE('',(#910),#978,.T.);
#1021=ADVANCED_FACE('',(#911),#979,.T.);
#1022=ADVANCED_FACE('',(#912,#913),#980,.F.);
#1023=ADVANCED_FACE('',(#914,#915),#981,.T.);
#1024=ADVANCED_FACE('',(#916),#982,.F.);
#1025=ADVANCED_FACE('',(#917,#918),#13,.F.);
#1026=ADVANCED_FACE('',(#919),#983,.T.);
#1027=ADVANCED_FACE('',(#920),#984,.T.);
#1028=ADVANCED_FACE('',(#921),#985,.F.);
#1029=ADVANCED_FACE('',(#922),#986,.T.);
#1030=ADVANCED_FACE('',(#923),#14,.F.);
#1031=ADVANCED_FACE('',(#924),#987,.F.);
#1032=ADVANCED_FACE('',(#925),#988,.T.);
#1033=ADVANCED_FACE('',(#926),#989,.T.);
#1034=ADVANCED_FACE('',(#927,#928),#990,.T.);
#1035=ADVANCED_FACE('',(#929),#991,.T.);
#1036=ADVANCED_FACE('',(#930,#931),#992,.F.);
#1037=ADVANCED_FACE('',(#932),#993,.F.);
#1038=ADVANCED_FACE('',(#933),#15,.F.);
#1039=ADVANCED_FACE('',(#934),#994,.T.);
#1040=ADVANCED_FACE('',(#935),#995,.F.);
#1041=ADVANCED_FACE('',(#936),#996,.T.);
#1042=ADVANCED_FACE('',(#937),#997,.F.);
#1043=ADVANCED_FACE('',(#938),#998,.F.);
#1044=ADVANCED_FACE('',(#939),#999,.F.);
#1045=ADVANCED_FACE('',(#940),#1000,.F.);
#1046=ADVANCED_FACE('',(#941,#942),#1001,.F.);
#1047=ADVANCED_FACE('',(#943),#1002,.F.);
#1048=ADVANCED_FACE('',(#944),#1003,.F.);
#1049=ADVANCED_FACE('',(#945),#1004,.F.);
#1050=ADVANCED_FACE('',(#946),#1005,.T.);
#1051=ADVANCED_FACE('',(#947),#1006,.F.);
#1052=ADVANCED_FACE('',(#948),#1007,.T.);
#1053=ADVANCED_FACE('',(#949),#1008,.T.);
#1054=ADVANCED_FACE('',(#950,#951),#1009,.T.);
#1055=ADVANCED_FACE('',(#952),#1010,.T.);
#1056=ADVANCED_FACE('',(#953),#1011,.T.);
#1057=ADVANCED_FACE('',(#954),#1012,.T.);
#1058=ADVANCED_FACE('',(#955),#1013,.T.);
#1059=ADVANCED_FACE('',(#956,#957),#16,.F.);
#1060=ADVANCED_FACE('',(#958,#959),#1014,.T.);
#1061=ADVANCED_FACE('',(#960,#961),#1015,.F.);
#1062=ADVANCED_FACE('',(#962),#17,.T.);
#1063=ADVANCED_FACE('',(#963),#1016,.T.);
#1064=ADVANCED_FACE('',(#964,#965),#18,.F.);
#1065=ADVANCED_FACE('',(#966),#1017,.F.);
#1066=ADVANCED_FACE('',(#967),#19,.T.);
#1067=ADVANCED_FACE('',(#968),#1018,.T.);
#1068=ADVANCED_FACE('',(#969,#970),#20,.F.);
#1069=ADVANCED_FACE('',(#971),#1019,.F.);
#1070=ADVANCED_FACE('',(#972,#973),#12,.F.);
#1071=ADVANCED_FACE('',(#974),#21,.T.);
#1072=ADVANCED_FACE('',(#975),#22,.T.);
#1073=ADVANCED_FACE('',(#976),#23,.T.);
#1074=ADVANCED_FACE('',(#977),#24,.T.);
#1075=CLOSED_SHELL('',(#1020,#1021,#1022,#1023,#1024,#1025,#1026,#1027,
#1028,#1029,#1030,#1031,#1032,#1033,#1034,#1035,#1036,#1037,#1038,#1039,
#1040,#1041,#1042,#1043,#1044,#1045,#1046,#1047,#1048,#1049,#1050,#1051,
#1052,#1053,#1054,#1055,#1056,#1057,#1058,#1059,#1060,#1061,#1062,#1063,
#1064,#1065,#1066,#1067,#1068,#1069,#1070,#1071,#1072,#1073,#1074));
#1076=STYLED_ITEM('',(#1077),#1084);
#1077=PRESENTATION_STYLE_ASSIGNMENT((#1078));
#1078=SURFACE_STYLE_USAGE(.BOTH.,#1079);
#1079=SURFACE_SIDE_STYLE('',(#1080));
#1080=SURFACE_STYLE_FILL_AREA(#1081);
#1081=FILL_AREA_STYLE('',(#1082));
#1082=FILL_AREA_STYLE_COLOUR('',#1083);
#1083=COLOUR_RGB('',0.615686274509804,0.811764705882353,0.929411764705882);
#1084=MANIFOLD_SOLID_BREP('Part 1',#1075);
#1085=SHAPE_DEFINITION_REPRESENTATION(#1774,#1086);
#1086=SHAPE_REPRESENTATION('Part 1',(#1087),#1769);
#1087=AXIS2_PLACEMENT_3D('',#1462,#1172,#1173);
#1088=AXIS2_PLACEMENT_3D('',#1463,#1174,#1175);
#1089=AXIS2_PLACEMENT_3D('',#1467,#1177,#1178);
#1090=AXIS2_PLACEMENT_3D('',#1471,#1180,#1181);
#1091=AXIS2_PLACEMENT_3D('',#1500,#1196,#1197);
#1092=AXIS2_PLACEMENT_3D('',#1504,#1199,#1200);
#1093=AXIS2_PLACEMENT_3D('',#1536,#1216,#1217);
#1094=AXIS2_PLACEMENT_3D('',#1537,#1218,#1219);
#1095=AXIS2_PLACEMENT_3D('',#1538,#1220,#1221);
#1096=AXIS2_PLACEMENT_3D('',#1547,#1226,#1227);
#1097=AXIS2_PLACEMENT_3D('',#1550,#1229,#1230);
#1098=AXIS2_PLACEMENT_3D('',#1557,#1234,#1235);
#1099=AXIS2_PLACEMENT_3D('',#1561,#1238,#1239);
#1100=AXIS2_PLACEMENT_3D('',#1563,#1240,#1241);
#1101=AXIS2_PLACEMENT_3D('',#1564,#1242,#1243);
#1102=AXIS2_PLACEMENT_3D('',#1568,#1245,#1246);
#1103=AXIS2_PLACEMENT_3D('',#1569,#1247,#1248);
#1104=AXIS2_PLACEMENT_3D('',#1573,#1250,#1251);
#1105=AXIS2_PLACEMENT_3D('',#1574,#1252,#1253);
#1106=AXIS2_PLACEMENT_3D('',#1575,#1254,#1255);
#1107=AXIS2_PLACEMENT_3D('',#1577,#1256,#1257);
#1108=AXIS2_PLACEMENT_3D('',#1579,#1258,#1259);
#1109=AXIS2_PLACEMENT_3D('',#1590,#1266,#1267);
#1110=AXIS2_PLACEMENT_3D('',#1603,#1274,#1275);
#1111=AXIS2_PLACEMENT_3D('',#1604,#1276,#1277);
#1112=AXIS2_PLACEMENT_3D('',#1607,#1279,#1280);
#1113=AXIS2_PLACEMENT_3D('',#1608,#1281,#1282);
#1114=AXIS2_PLACEMENT_3D('',#1614,#1285,#1286);
#1115=AXIS2_PLACEMENT_3D('',#1615,#1287,#1288);
#1116=AXIS2_PLACEMENT_3D('',#1619,#1290,#1291);
#1117=AXIS2_PLACEMENT_3D('',#1621,#1293,#1294);
#1118=AXIS2_PLACEMENT_3D('',#1623,#1296,#1297);
#1119=AXIS2_PLACEMENT_3D('',#1627,#1300,#1301);
#1120=AXIS2_PLACEMENT_3D('',#1638,#1307,#1308);
#1121=AXIS2_PLACEMENT_3D('',#1648,#1315,#1316);
#1122=AXIS2_PLACEMENT_3D('',#1651,#1318,#1319);
#1123=AXIS2_PLACEMENT_3D('',#1653,#1320,#1321);
#1124=AXIS2_PLACEMENT_3D('',#1655,#1323,#1324);
#1125=AXIS2_PLACEMENT_3D('',#1658,#1326,#1327);
#1126=AXIS2_PLACEMENT_3D('',#1667,#1333,#1334);
#1127=AXIS2_PLACEMENT_3D('',#1669,#1335,#1336);
#1128=AXIS2_PLACEMENT_3D('',#1675,#1340,#1341);
#1129=AXIS2_PLACEMENT_3D('',#1676,#1342,#1343);
#1130=AXIS2_PLACEMENT_3D('',#1677,#1344,#1345);
#1131=AXIS2_PLACEMENT_3D('',#1678,#1346,#1347);
#1132=AXIS2_PLACEMENT_3D('',#1679,#1348,#1349);
#1133=AXIS2_PLACEMENT_3D('',#1680,#1350,#1351);
#1134=AXIS2_PLACEMENT_3D('',#1681,#1352,#1353);
#1135=AXIS2_PLACEMENT_3D('',#1682,#1354,#1355);
#1136=AXIS2_PLACEMENT_3D('',#1683,#1356,#1357);
#1137=AXIS2_PLACEMENT_3D('',#1684,#1358,#1359);
#1138=AXIS2_PLACEMENT_3D('',#1688,#1362,#1363);
#1139=AXIS2_PLACEMENT_3D('',#1692,#1366,#1367);
#1140=AXIS2_PLACEMENT_3D('',#1696,#1370,#1371);
#1141=AXIS2_PLACEMENT_3D('',#1700,#1374,#1375);
#1142=AXIS2_PLACEMENT_3D('',#1704,#1378,#1379);
#1143=AXIS2_PLACEMENT_3D('',#1708,#1382,#1383);
#1144=AXIS2_PLACEMENT_3D('',#1710,#1385,#1386);
#1145=AXIS2_PLACEMENT_3D('',#1711,#1387,#1388);
#1146=AXIS2_PLACEMENT_3D('',#1715,#1391,#1392);
#1147=AXIS2_PLACEMENT_3D('',#1719,#1395,#1396);
#1148=AXIS2_PLACEMENT_3D('',#1723,#1399,#1400);
#1149=AXIS2_PLACEMENT_3D('',#1724,#1401,#1402);
#1150=AXIS2_PLACEMENT_3D('',#1729,#1405,#1406);
#1151=AXIS2_PLACEMENT_3D('',#1733,#1409,#1410);
#1152=AXIS2_PLACEMENT_3D('',#1737,#1413,#1414);
#1153=AXIS2_PLACEMENT_3D('',#1739,#1416,#1417);
#1154=AXIS2_PLACEMENT_3D('',#1740,#1418,#1419);
#1155=AXIS2_PLACEMENT_3D('',#1741,#1420,#1421);
#1156=AXIS2_PLACEMENT_3D('',#1743,#1422,#1423);
#1157=AXIS2_PLACEMENT_3D('',#1746,#1426,#1427);
#1158=AXIS2_PLACEMENT_3D('',#1749,#1430,#1431);
#1159=AXIS2_PLACEMENT_3D('',#1752,#1434,#1435);
#1160=AXIS2_PLACEMENT_3D('',#1753,#1436,#1437);
#1161=AXIS2_PLACEMENT_3D('',#1754,#1438,#1439);
#1162=AXIS2_PLACEMENT_3D('',#1755,#1440,#1441);
#1163=AXIS2_PLACEMENT_3D('',#1758,#1444,#1445);
#1164=AXIS2_PLACEMENT_3D('',#1759,#1446,#1447);
#1165=AXIS2_PLACEMENT_3D('',#1760,#1448,#1449);
#1166=AXIS2_PLACEMENT_3D('',#1762,#1450,#1451);
#1167=AXIS2_PLACEMENT_3D('',#1763,#1452,#1453);
#1168=AXIS2_PLACEMENT_3D('',#1764,#1454,#1455);
#1169=AXIS2_PLACEMENT_3D('',#1765,#1456,#1457);
#1170=AXIS2_PLACEMENT_3D('',#1766,#1458,#1459);
#1171=AXIS2_PLACEMENT_3D('',#1767,#1460,#1461);
#1172=DIRECTION('',(0.,0.,1.));
#1173=DIRECTION('',(1.,0.,0.));
#1174=DIRECTION('',(0.,0.,1.));
#1175=DIRECTION('',(1.,0.,0.));
#1176=DIRECTION('',(-1.,-1.19636101791504E-16,0.));
#1177=DIRECTION('',(0.,0.,1.));
#1178=DIRECTION('',(1.,0.,0.));
#1179=DIRECTION('',(-2.31296463463574E-16,-1.,0.));
#1180=DIRECTION('',(0.,0.,1.));
#1181=DIRECTION('',(1.,0.,0.));
#1182=DIRECTION('',(-1.,-1.19636101791504E-16,0.));
#1183=DIRECTION('',(1.19636101791504E-16,-1.,0.));
#1184=DIRECTION('',(-1.,0.,0.));
#1185=DIRECTION('',(0.,-1.,0.));
#1186=DIRECTION('',(1.,0.,0.));
#1187=DIRECTION('',(0.,1.,0.));
#1188=DIRECTION('',(1.,0.,0.));
#1189=DIRECTION('',(0.,-1.,0.));
#1190=DIRECTION('',(-1.,0.,0.));
#1191=DIRECTION('',(0.,1.,0.));
#1192=DIRECTION('',(-1.,0.,0.));
#1193=DIRECTION('',(0.,-1.,0.));
#1194=DIRECTION('',(-1.,0.,0.));
#1195=DIRECTION('',(1.19636101791504E-16,1.,0.));
#1196=DIRECTION('',(0.,0.,1.));
#1197=DIRECTION('',(1.,0.,0.));
#1198=DIRECTION('',(-2.31296463463574E-16,-1.,0.));
#1199=DIRECTION('',(0.,0.,1.));
#1200=DIRECTION('',(1.,0.,0.));
#1201=DIRECTION('',(-1.,-1.19636101791504E-16,0.));
#1202=DIRECTION('',(1.19636101791504E-16,1.,0.));
#1203=DIRECTION('',(-1.,0.,0.));
#1204=DIRECTION('',(0.,-1.,0.));
#1205=DIRECTION('',(1.,0.,0.));
#1206=DIRECTION('',(0.,1.,0.));
#1207=DIRECTION('',(1.,0.,0.));
#1208=DIRECTION('',(0.,-1.,0.));
#1209=DIRECTION('',(-1.,0.,0.));
#1210=DIRECTION('',(0.,1.,0.));
#1211=DIRECTION('',(1.,0.,0.));
#1212=DIRECTION('',(0.,-1.,0.));
#1213=DIRECTION('',(-1.,0.,0.));
#1214=DIRECTION('',(1.19636101791504E-16,-1.,0.));
#1215=DIRECTION('',(-1.,-1.19636101791504E-16,0.));
#1216=DIRECTION('',(0.,0.,1.));
#1217=DIRECTION('',(1.,0.,0.));
#1218=DIRECTION('',(1.19636101791504E-16,-1.,0.));
#1219=DIRECTION('',(1.,1.19636101791504E-16,0.));
#1220=DIRECTION('',(1.19636101791504E-16,-1.,0.));
#1221=DIRECTION('',(1.,1.19636101791504E-16,0.));
#1222=DIRECTION('',(0.,0.,1.));
#1223=DIRECTION('',(-1.,-1.19636101791504E-16,0.));
#1224=DIRECTION('',(0.,0.,1.));
#1225=DIRECTION('',(0.,0.,-1.));
#1226=DIRECTION('',(-1.19636101791504E-16,-1.,0.));
#1227=DIRECTION('',(1.,-1.19636101791504E-16,0.));
#1228=DIRECTION('',(0.,0.,-1.));
#1229=DIRECTION('',(1.19636101791504E-16,-1.,0.));
#1230=DIRECTION('',(1.,1.19636101791504E-16,0.));
#1231=DIRECTION('',(-1.,-1.19636101791504E-16,0.));
#1232=DIRECTION('',(0.,0.,1.));
#1233=DIRECTION('',(0.,0.,-1.));
#1234=DIRECTION('',(1.19636101791504E-16,-1.,0.));
#1235=DIRECTION('',(1.,1.19636101791504E-16,0.));
#1236=DIRECTION('',(0.,0.,-1.));
#1237=DIRECTION('',(0.,0.,1.));
#1238=DIRECTION('',(1.19636101791504E-16,-1.,0.));
#1239=DIRECTION('',(1.,1.19636101791504E-16,0.));
#1240=DIRECTION('',(0.,0.,1.));
#1241=DIRECTION('',(1.,0.,0.));
#1242=DIRECTION('',(0.,0.,1.));
#1243=DIRECTION('',(1.,0.,0.));
#1244=DIRECTION('',(-2.31296463463574E-16,-1.,0.));
#1245=DIRECTION('',(0.,0.,1.));
#1246=DIRECTION('',(1.,0.,0.));
#1247=DIRECTION('',(0.,0.,1.));
#1248=DIRECTION('',(1.,0.,0.));
#1249=DIRECTION('',(-2.31296463463574E-16,-1.,0.));
#1250=DIRECTION('',(0.,0.,1.));
#1251=DIRECTION('',(1.,0.,0.));
#1252=DIRECTION('',(-1.,0.,0.));
#1253=DIRECTION('',(0.,0.,1.));
#1254=DIRECTION('',(-1.,0.,0.));
#1255=DIRECTION('',(0.,0.,1.));
#1256=DIRECTION('',(-1.,2.31296463463574E-16,0.));
#1257=DIRECTION('',(-2.31296463463574E-16,-1.,0.));
#1258=DIRECTION('',(-1.,0.,0.));
#1259=DIRECTION('',(0.,0.,1.));
#1260=DIRECTION('',(0.,-1.,0.));
#1261=DIRECTION('',(0.,0.,1.));
#1262=DIRECTION('',(0.,0.,1.));
#1263=DIRECTION('',(0.,-1.,0.));
#1264=DIRECTION('',(0.,0.,1.));
#1265=DIRECTION('',(0.,0.,1.));
#1266=DIRECTION('',(0.,0.,1.));
#1267=DIRECTION('',(1.,0.,0.));
#1268=DIRECTION('',(-1.,0.,0.));
#1269=DIRECTION('',(0.,1.,0.));
#1270=DIRECTION('',(0.,1.,0.));
#1271=DIRECTION('',(-1.,0.,0.));
#1272=DIRECTION('',(0.,1.,0.));
#1273=DIRECTION('',(0.,1.,0.));
#1274=DIRECTION('',(1.,0.,0.));
#1275=DIRECTION('',(0.,1.,0.));
#1276=DIRECTION('',(1.,0.,0.));
#1277=DIRECTION('',(0.,0.,-1.));
#1278=DIRECTION('',(0.,0.,1.));
#1279=DIRECTION('',(1.,0.,0.));
#1280=DIRECTION('',(0.,1.,0.));
#1281=DIRECTION('',(1.,0.,0.));
#1282=DIRECTION('',(0.,0.,-1.));
#1283=DIRECTION('',(0.,1.,0.));
#1284=DIRECTION('',(0.,0.,1.));
#1285=DIRECTION('',(-1.,0.,0.));
#1286=DIRECTION('',(0.,0.,1.));
#1287=DIRECTION('',(1.,0.,0.));
#1288=DIRECTION('',(0.,0.,-1.));
#1289=DIRECTION('',(-1.,0.,0.));
#1290=DIRECTION('',(1.,0.,0.));
#1291=DIRECTION('',(0.,0.,-1.));
#1292=DIRECTION('',(-1.,0.,0.));
#1293=DIRECTION('',(1.,0.,0.));
#1294=DIRECTION('',(0.,1.,0.));
#1295=DIRECTION('',(0.,0.,-1.));
#1296=DIRECTION('',(1.,0.,0.));
#1297=DIRECTION('',(0.,1.,0.));
#1298=DIRECTION('',(0.,0.,-1.));
#1299=DIRECTION('',(0.,1.,0.));
#1300=DIRECTION('',(0.,0.,1.));
#1301=DIRECTION('',(1.,0.,0.));
#1302=DIRECTION('',(0.,1.,0.));
#1303=DIRECTION('',(0.,1.,0.));
#1304=DIRECTION('',(-1.,0.,0.));
#1305=DIRECTION('',(0.,-1.,0.));
#1306=DIRECTION('',(-1.,0.,0.));
#1307=DIRECTION('',(0.,1.,0.));
#1308=DIRECTION('',(0.,0.,1.));
#1309=DIRECTION('',(-1.,0.,0.));
#1310=DIRECTION('',(0.,0.,-1.));
#1311=DIRECTION('',(-1.,0.,0.));
#1312=DIRECTION('',(0.,0.,-1.));
#1313=DIRECTION('',(0.,0.,1.));
#1314=DIRECTION('',(0.,0.,-1.));
#1315=DIRECTION('',(1.19636101791504E-16,-1.,0.));
#1316=DIRECTION('',(1.,1.19636101791504E-16,0.));
#1317=DIRECTION('',(0.,0.,-1.));
#1318=DIRECTION('',(1.19636101791504E-16,-1.,0.));
#1319=DIRECTION('',(1.,1.19636101791504E-16,0.));
#1320=DIRECTION('',(0.,0.,1.));
#1321=DIRECTION('',(1.,0.,0.));
#1322=DIRECTION('',(-1.,0.,0.));
#1323=DIRECTION('',(0.,1.,0.));
#1324=DIRECTION('',(0.,0.,1.));
#1325=DIRECTION('',(0.,0.,-1.));
#1326=DIRECTION('',(-1.19636101791504E-16,-1.,0.));
#1327=DIRECTION('',(1.,-1.19636101791504E-16,0.));
#1328=DIRECTION('',(0.,0.,-1.));
#1329=DIRECTION('',(0.,0.,1.));
#1330=DIRECTION('',(0.,0.,1.));
#1331=DIRECTION('',(-1.,0.,0.));
#1332=DIRECTION('',(0.,0.,1.));
#1333=DIRECTION('',(-1.19636101791504E-16,-1.,0.));
#1334=DIRECTION('',(1.,-1.19636101791504E-16,0.));
#1335=DIRECTION('',(-1.,0.,0.));
#1336=DIRECTION('',(0.,0.,1.));
#1337=DIRECTION('',(0.,-1.,0.));
#1338=DIRECTION('',(0.,0.,1.));
#1339=DIRECTION('',(0.,0.,1.));
#1340=DIRECTION('',(-1.,0.,0.));
#1341=DIRECTION('',(0.,0.,1.));
#1342=DIRECTION('',(1.,0.,0.));
#1343=DIRECTION('',(0.,0.,-1.));
#1344=DIRECTION('',(1.,0.,0.));
#1345=DIRECTION('',(0.,0.,-1.));
#1346=DIRECTION('',(1.,0.,0.));
#1347=DIRECTION('',(0.,0.,-1.));
#1348=DIRECTION('',(1.,0.,0.));
#1349=DIRECTION('',(0.,0.,-1.));
#1350=DIRECTION('',(1.,0.,0.));
#1351=DIRECTION('',(0.,1.,0.));
#1352=DIRECTION('',(1.,0.,0.));
#1353=DIRECTION('',(0.,1.,0.));
#1354=DIRECTION('',(1.,0.,0.));
#1355=DIRECTION('',(0.,1.,0.));
#1356=DIRECTION('',(1.,0.,0.));
#1357=DIRECTION('',(0.,1.,0.));
#1358=DIRECTION('',(0.,1.,0.));
#1359=DIRECTION('',(0.,0.,1.));
#1360=DIRECTION('',(0.,0.,1.));
#1361=DIRECTION('',(-1.,0.,0.));
#1362=DIRECTION('',(1.,0.,0.));
#1363=DIRECTION('',(0.,0.,-1.));
#1364=DIRECTION('',(0.,0.,1.));
#1365=DIRECTION('',(0.,1.,0.));
#1366=DIRECTION('',(0.,1.,0.));
#1367=DIRECTION('',(0.,0.,1.));
#1368=DIRECTION('',(0.,0.,1.));
#1369=DIRECTION('',(-1.,0.,0.));
#1370=DIRECTION('',(-1.,0.,0.));
#1371=DIRECTION('',(0.,0.,1.));
#1372=DIRECTION('',(0.,0.,1.));
#1373=DIRECTION('',(0.,-1.,0.));
#1374=DIRECTION('',(0.,-1.,0.));
#1375=DIRECTION('',(0.,0.,-1.));
#1376=DIRECTION('',(0.,0.,1.));
#1377=DIRECTION('',(1.,0.,0.));
#1378=DIRECTION('',(1.,0.,0.));
#1379=DIRECTION('',(0.,0.,-1.));
#1380=DIRECTION('',(0.,0.,1.));
#1381=DIRECTION('',(0.,1.,0.));
#1382=DIRECTION('',(0.,-1.,0.));
#1383=DIRECTION('',(0.,0.,-1.));
#1384=DIRECTION('',(1.,0.,0.));
#1385=DIRECTION('',(0.,0.,1.));
#1386=DIRECTION('',(1.,0.,0.));
#1387=DIRECTION('',(0.,-1.,0.));
#1388=DIRECTION('',(0.,0.,-1.));
#1389=DIRECTION('',(0.,0.,1.));
#1390=DIRECTION('',(1.,0.,0.));
#1391=DIRECTION('',(1.,0.,0.));
#1392=DIRECTION('',(0.,0.,-1.));
#1393=DIRECTION('',(0.,0.,1.));
#1394=DIRECTION('',(0.,1.,0.));
#1395=DIRECTION('',(0.,1.,0.));
#1396=DIRECTION('',(0.,0.,1.));
#1397=DIRECTION('',(0.,0.,1.));
#1398=DIRECTION('',(-1.,0.,0.));
#1399=DIRECTION('',(-1.,0.,0.));
#1400=DIRECTION('',(0.,0.,1.));
#1401=DIRECTION('',(-1.,0.,0.));
#1402=DIRECTION('',(0.,0.,1.));
#1403=DIRECTION('',(0.,0.,1.));
#1404=DIRECTION('',(0.,-1.,0.));
#1405=DIRECTION('',(0.,-1.,0.));
#1406=DIRECTION('',(0.,0.,-1.));
#1407=DIRECTION('',(0.,0.,1.));
#1408=DIRECTION('',(1.,0.,0.));
#1409=DIRECTION('',(1.,0.,0.));
#1410=DIRECTION('',(0.,0.,-1.));
#1411=DIRECTION('',(0.,0.,1.));
#1412=DIRECTION('',(0.,1.,0.));
#1413=DIRECTION('',(0.,-1.,0.));
#1414=DIRECTION('',(0.,0.,-1.));
#1415=DIRECTION('',(1.,0.,0.));
#1416=DIRECTION('',(0.,0.,1.));
#1417=DIRECTION('',(1.,0.,0.));
#1418=DIRECTION('',(-1.,0.,0.));
#1419=DIRECTION('',(0.,0.,1.));
#1420=DIRECTION('',(-1.,2.31296463463574E-16,0.));
#1421=DIRECTION('',(-2.31296463463574E-16,-1.,0.));
#1422=DIRECTION('',(-1.,2.31296463463574E-16,0.));
#1423=DIRECTION('',(-2.31296463463574E-16,-1.,0.));
#1424=DIRECTION('',(0.,0.,1.));
#1425=DIRECTION('',(0.,0.,1.));
#1426=DIRECTION('',(-1.,2.31296463463574E-16,0.));
#1427=DIRECTION('',(-2.31296463463574E-16,-1.,0.));
#1428=DIRECTION('',(0.,0.,1.));
#1429=DIRECTION('',(0.,0.,1.));
#1430=DIRECTION('',(1.19636101791504E-16,-1.,0.));
#1431=DIRECTION('',(1.,1.19636101791504E-16,0.));
#1432=DIRECTION('',(1.19636101791504E-16,-1.,0.));
#1433=DIRECTION('',(1.19636101791504E-16,-1.,0.));
#1434=DIRECTION('',(-1.,-1.19636101791504E-16,0.));
#1435=DIRECTION('',(1.19636101791504E-16,-1.,0.));
#1436=DIRECTION('',(1.19636101791504E-16,-1.,0.));
#1437=DIRECTION('',(1.,1.19636101791504E-16,0.));
#1438=DIRECTION('',(-1.,-1.19636101791504E-16,0.));
#1439=DIRECTION('',(1.19636101791504E-16,-1.,0.));
#1440=DIRECTION('',(1.19636101791504E-16,1.,0.));
#1441=DIRECTION('',(-1.,1.19636101791504E-16,0.));
#1442=DIRECTION('',(1.19636101791504E-16,1.,0.));
#1443=DIRECTION('',(1.19636101791504E-16,1.,0.));
#1444=DIRECTION('',(1.,-1.19636101791504E-16,0.));
#1445=DIRECTION('',(1.19636101791504E-16,1.,0.));
#1446=DIRECTION('',(1.19636101791504E-16,1.,0.));
#1447=DIRECTION('',(-1.,1.19636101791504E-16,0.));
#1448=DIRECTION('',(-1.19636101791504E-16,-1.,0.));
#1449=DIRECTION('',(1.,-1.19636101791504E-16,0.));
#1450=DIRECTION('',(1.,-1.19636101791504E-16,0.));
#1451=DIRECTION('',(1.19636101791504E-16,1.,0.));
#1452=DIRECTION('',(1.19636101791504E-16,1.,0.));
#1453=DIRECTION('',(-1.,1.19636101791504E-16,0.));
#1454=DIRECTION('',(0.,0.,1.));
#1455=DIRECTION('',(1.,0.,0.));
#1456=DIRECTION('',(0.,0.,-1.));
#1457=DIRECTION('',(-1.,0.,0.));
#1458=DIRECTION('',(0.,0.,-1.));
#1459=DIRECTION('',(-1.,0.,0.));
#1460=DIRECTION('',(0.,0.,1.));
#1461=DIRECTION('',(1.,0.,0.));
#1462=CARTESIAN_POINT('',(0.,0.,0.));
#1463=CARTESIAN_POINT('',(0.,0.,0.025));
#1464=CARTESIAN_POINT('',(0.,0.013,0.025));
#1465=CARTESIAN_POINT('',(-0.005,0.013,0.025));
#1466=CARTESIAN_POINT('',(-0.039,0.013,0.025));
#1467=CARTESIAN_POINT('',(-0.039,0.011,0.025));
#1468=CARTESIAN_POINT('',(-0.041,0.011,0.025));
#1469=CARTESIAN_POINT('',(-0.041,0.,0.025));
#1470=CARTESIAN_POINT('',(-0.041,-0.011,0.025));
#1471=CARTESIAN_POINT('',(-0.039,-0.011,0.025));
#1472=CARTESIAN_POINT('',(-0.039,-0.013,0.025));
#1473=CARTESIAN_POINT('',(0.,-0.013,0.025));
#1474=CARTESIAN_POINT('',(-0.005,-0.013,0.025));
#1475=CARTESIAN_POINT('',(-0.005,-0.01025,0.025));
#1476=CARTESIAN_POINT('',(-0.005,-0.01025,0.025));
#1477=CARTESIAN_POINT('',(0.,-0.01025,0.025));
#1478=CARTESIAN_POINT('',(-0.037,-0.01025,0.025));
#1479=CARTESIAN_POINT('',(-0.037,0.,0.025));
#1480=CARTESIAN_POINT('',(-0.037,-0.0045,0.025));
#1481=CARTESIAN_POINT('',(-0.0374,-0.0045,0.025));
#1482=CARTESIAN_POINT('',(-0.0378,-0.0045,0.025));
#1483=CARTESIAN_POINT('',(-0.0378,-0.0055,0.025));
#1484=CARTESIAN_POINT('',(-0.0378,-0.0065,0.025));
#1485=CARTESIAN_POINT('',(-0.0384,-0.0065,0.025));
#1486=CARTESIAN_POINT('',(-0.039,-0.0065,0.025));
#1487=CARTESIAN_POINT('',(-0.039,1.7347234759768E-18,0.025));
#1488=CARTESIAN_POINT('',(-0.039,0.0065,0.025));
#1489=CARTESIAN_POINT('',(-0.0384,0.0065,0.025));
#1490=CARTESIAN_POINT('',(-0.0378,0.0065,0.025));
#1491=CARTESIAN_POINT('',(-0.0378,0.0055,0.025));
#1492=CARTESIAN_POINT('',(-0.0378,0.0045,0.025));
#1493=CARTESIAN_POINT('',(-0.0374,0.0045,0.025));
#1494=CARTESIAN_POINT('',(-0.037,0.0045,0.025));
#1495=CARTESIAN_POINT('',(-0.037,0.,0.025));
#1496=CARTESIAN_POINT('',(-0.037,0.01025,0.025));
#1497=CARTESIAN_POINT('',(0.,0.01025,0.025));
#1498=CARTESIAN_POINT('',(-0.005,0.01025,0.025));
#1499=CARTESIAN_POINT('',(-0.005,0.01025,0.025));
#1500=CARTESIAN_POINT('',(0.,0.,0.025));
#1501=CARTESIAN_POINT('',(0.041,0.,0.025));
#1502=CARTESIAN_POINT('',(0.041,0.011,0.025));
#1503=CARTESIAN_POINT('',(0.041,-0.011,0.025));
#1504=CARTESIAN_POINT('',(0.039,0.011,0.025));
#1505=CARTESIAN_POINT('',(0.039,0.013,0.025));
#1506=CARTESIAN_POINT('',(0.,0.013,0.025));
#1507=CARTESIAN_POINT('',(0.005,0.013,0.025));
#1508=CARTESIAN_POINT('',(0.005,0.01025,0.025));
#1509=CARTESIAN_POINT('',(0.005,0.01025,0.025));
#1510=CARTESIAN_POINT('',(0.,0.01025,0.025));
#1511=CARTESIAN_POINT('',(0.037,0.01025,0.025));
#1512=CARTESIAN_POINT('',(0.037,0.,0.025));
#1513=CARTESIAN_POINT('',(0.037,0.0045,0.025));
#1514=CARTESIAN_POINT('',(0.0374,0.0045,0.025));
#1515=CARTESIAN_POINT('',(0.0378,0.0045,0.025));
#1516=CARTESIAN_POINT('',(0.0378,0.0055,0.025));
#1517=CARTESIAN_POINT('',(0.0378,0.0065,0.025));
#1518=CARTESIAN_POINT('',(0.0384,0.0065,0.025));
#1519=CARTESIAN_POINT('',(0.039,0.0065,0.025));
#1520=CARTESIAN_POINT('',(0.039,0.,0.025));
#1521=CARTESIAN_POINT('',(0.039,-0.0065,0.025));
#1522=CARTESIAN_POINT('',(0.0384,-0.0065,0.025));
#1523=CARTESIAN_POINT('',(0.0378,-0.0065,0.025));
#1524=CARTESIAN_POINT('',(0.0378,-0.0055,0.025));
#1525=CARTESIAN_POINT('',(0.0378,-0.0045,0.025));
#1526=CARTESIAN_POINT('',(0.0374,-0.0045,0.025));
#1527=CARTESIAN_POINT('',(0.037,-0.0045,0.025));
#1528=CARTESIAN_POINT('',(0.037,0.,0.025));
#1529=CARTESIAN_POINT('',(0.037,-0.01025,0.025));
#1530=CARTESIAN_POINT('',(0.,-0.01025,0.025));
#1531=CARTESIAN_POINT('',(0.005,-0.01025,0.025));
#1532=CARTESIAN_POINT('',(0.005,-0.01025,0.025));
#1533=CARTESIAN_POINT('',(0.005,-0.013,0.025));
#1534=CARTESIAN_POINT('',(0.,-0.013,0.025));
#1535=CARTESIAN_POINT('',(0.039,-0.013,0.025));
#1536=CARTESIAN_POINT('',(0.039,-0.011,0.025));
#1537=CARTESIAN_POINT('',(0.,0.013,0.025));
#1538=CARTESIAN_POINT('',(1.7347234759768E-18,0.013,0.0302));
#1539=CARTESIAN_POINT('',(0.004,0.013,0.0302));
#1540=CARTESIAN_POINT('',(0.039,0.013,0.025));
#1541=CARTESIAN_POINT('',(0.039,0.013,0.));
#1542=CARTESIAN_POINT('',(0.,0.013,0.));
#1543=CARTESIAN_POINT('',(-0.039,0.013,0.));
#1544=CARTESIAN_POINT('',(-0.039,0.013,0.025));
#1545=CARTESIAN_POINT('',(-0.005,0.013,0.0276));
#1546=CARTESIAN_POINT('',(-0.005,0.013,0.0302));
#1547=CARTESIAN_POINT('',(1.7347234759768E-18,0.013,0.0302));
#1548=CARTESIAN_POINT('',(0.005,0.013,0.0302));
#1549=CARTESIAN_POINT('',(0.005,0.013,0.0276));
#1550=CARTESIAN_POINT('',(0.,-0.013,0.025));
#1551=CARTESIAN_POINT('',(0.,-0.013,0.));
#1552=CARTESIAN_POINT('',(0.039,-0.013,0.));
#1553=CARTESIAN_POINT('',(-0.039,-0.013,0.));
#1554=CARTESIAN_POINT('',(0.039,-0.013,0.025));
#1555=CARTESIAN_POINT('',(0.005,-0.013,0.0276));
#1556=CARTESIAN_POINT('',(0.005,-0.013,0.0302));
#1557=CARTESIAN_POINT('',(1.7347234759768E-18,-0.013,0.0302));
#1558=CARTESIAN_POINT('',(-0.005,-0.013,0.0302));
#1559=CARTESIAN_POINT('',(-0.005,-0.013,0.0276));
#1560=CARTESIAN_POINT('',(-0.039,-0.013,0.025));
#1561=CARTESIAN_POINT('',(1.7347234759768E-18,-0.013,0.0302));
#1562=CARTESIAN_POINT('',(0.0022,-0.013,0.0302));
#1563=CARTESIAN_POINT('',(0.,0.,0.));
#1564=CARTESIAN_POINT('',(0.039,0.011,0.));
#1565=CARTESIAN_POINT('',(0.041,0.011,0.));
#1566=CARTESIAN_POINT('',(0.041,-9.48315500200655E-18,0.));
#1567=CARTESIAN_POINT('',(0.041,-0.011,0.));
#1568=CARTESIAN_POINT('',(0.039,-0.011,0.));
#1569=CARTESIAN_POINT('',(-0.039,-0.011,0.));
#1570=CARTESIAN_POINT('',(-0.041,-0.011,0.));
#1571=CARTESIAN_POINT('',(-0.041,9.48315500200655E-18,0.));
#1572=CARTESIAN_POINT('',(-0.041,0.011,0.));
#1573=CARTESIAN_POINT('',(-0.039,0.011,0.));
#1574=CARTESIAN_POINT('',(0.0474,0.,0.01475));
#1575=CARTESIAN_POINT('',(-0.039,0.,0.01475));
#1576=CARTESIAN_POINT('',(-0.039,0.,0.01625));
#1577=CARTESIAN_POINT('',(-0.041,0.,0.01475));
#1578=CARTESIAN_POINT('',(-0.041,-0.0015,0.01475));
#1579=CARTESIAN_POINT('',(0.037,0.,0.0045));
#1580=CARTESIAN_POINT('',(0.037,0.,0.00875));
#1581=CARTESIAN_POINT('',(0.037,0.0045,0.00875));
#1582=CARTESIAN_POINT('',(0.037,-0.0045,0.00875));
#1583=CARTESIAN_POINT('',(0.037,0.0045,0.00875));
#1584=CARTESIAN_POINT('',(0.037,0.01025,0.0045));
#1585=CARTESIAN_POINT('',(0.037,0.01025,0.0045));
#1586=CARTESIAN_POINT('',(0.037,0.,0.0045));
#1587=CARTESIAN_POINT('',(0.037,-0.01025,0.0045));
#1588=CARTESIAN_POINT('',(0.037,-0.01025,0.0045));
#1589=CARTESIAN_POINT('',(0.037,-0.0045,0.00875));
#1590=CARTESIAN_POINT('',(0.,0.,0.0045));
#1591=CARTESIAN_POINT('',(0.,-0.01025,0.0045));
#1592=CARTESIAN_POINT('',(0.016,-0.01025,0.0045));
#1593=CARTESIAN_POINT('',(-0.016,-0.01025,0.0045));
#1594=CARTESIAN_POINT('',(0.016,-0.005125,0.0045));
#1595=CARTESIAN_POINT('',(0.016,-9.95025524307223E-20,0.0045));
#1596=CARTESIAN_POINT('',(0.016,0.005125,0.0045));
#1597=CARTESIAN_POINT('',(0.016,0.01025,0.0045));
#1598=CARTESIAN_POINT('',(0.,0.01025,0.0045));
#1599=CARTESIAN_POINT('',(-0.016,0.01025,0.0045));
#1600=CARTESIAN_POINT('',(-0.016,0.005125,0.0045));
#1601=CARTESIAN_POINT('',(-0.016,-1.99005104861445E-19,0.0045));
#1602=CARTESIAN_POINT('',(-0.016,-0.005125,0.0045));
#1603=CARTESIAN_POINT('',(0.016,0.,0.01475));
#1604=CARTESIAN_POINT('',(0.016,-9.95025524307223E-20,0.01475));
#1605=CARTESIAN_POINT('',(0.016,0.01025,0.01475));
#1606=CARTESIAN_POINT('',(0.016,0.01025,0.009625));
#1607=CARTESIAN_POINT('',(0.02,0.,0.01475));
#1608=CARTESIAN_POINT('',(0.02,-9.95025524307223E-20,0.01475));
#1609=CARTESIAN_POINT('',(0.02,-1.99005104861445E-19,0.0045));
#1610=CARTESIAN_POINT('',(0.02,0.01025,0.01475));
#1611=CARTESIAN_POINT('',(0.02,0.005125,0.0045));
#1612=CARTESIAN_POINT('',(0.02,0.01025,0.0045));
#1613=CARTESIAN_POINT('',(0.02,0.01025,0.009625));
#1614=CARTESIAN_POINT('',(0.02,-9.95025524307223E-20,0.01475));
#1615=CARTESIAN_POINT('',(0.016,-9.95025524307223E-20,0.01475));
#1616=CARTESIAN_POINT('',(0.016,-0.01025,0.01475));
#1617=CARTESIAN_POINT('',(0.02,-0.01025,0.01475));
#1618=CARTESIAN_POINT('',(0.02,-0.01025,0.01475));
#1619=CARTESIAN_POINT('',(0.02,-9.95025524307223E-20,0.01475));
#1620=CARTESIAN_POINT('',(0.02,0.01025,0.01475));
#1621=CARTESIAN_POINT('',(0.016,0.,0.01475));
#1622=CARTESIAN_POINT('',(0.016,-0.01025,0.009625));
#1623=CARTESIAN_POINT('',(0.02,0.,0.01475));
#1624=CARTESIAN_POINT('',(0.02,-0.01025,0.009625));
#1625=CARTESIAN_POINT('',(0.02,-0.01025,0.0045));
#1626=CARTESIAN_POINT('',(0.02,-0.005125,0.0045));
#1627=CARTESIAN_POINT('',(0.,0.,0.0045));
#1628=CARTESIAN_POINT('',(-0.02,-0.005125,0.0045));
#1629=CARTESIAN_POINT('',(-0.02,-0.01025,0.0045));
#1630=CARTESIAN_POINT('',(-0.02,-9.95025524307223E-20,0.0045));
#1631=CARTESIAN_POINT('',(-0.02,0.005125,0.0045));
#1632=CARTESIAN_POINT('',(-0.02,0.01025,0.0045));
#1633=CARTESIAN_POINT('',(0.,0.01025,0.0045));
#1634=CARTESIAN_POINT('',(-0.037,0.01025,0.0045));
#1635=CARTESIAN_POINT('',(-0.037,0.,0.0045));
#1636=CARTESIAN_POINT('',(-0.037,-0.01025,0.0045));
#1637=CARTESIAN_POINT('',(0.,-0.01025,0.0045));
#1638=CARTESIAN_POINT('',(0.,-0.01025,0.0045));
#1639=CARTESIAN_POINT('',(0.,-0.01025,0.0045));
#1640=CARTESIAN_POINT('',(-0.016,-0.01025,0.009625));
#1641=CARTESIAN_POINT('',(-0.016,-0.01025,0.01475));
#1642=CARTESIAN_POINT('',(-0.016,-0.01025,0.01475));
#1643=CARTESIAN_POINT('',(-0.02,-0.01025,0.01475));
#1644=CARTESIAN_POINT('',(-0.02,-0.01025,0.009625));
#1645=CARTESIAN_POINT('',(-0.037,-0.01025,0.0045));
#1646=CARTESIAN_POINT('',(-0.005,-0.01025,0.0276));
#1647=CARTESIAN_POINT('',(-0.005,-0.01025,0.0302));
#1648=CARTESIAN_POINT('',(1.40572419605017E-18,-0.01025,0.0302));
#1649=CARTESIAN_POINT('',(0.005,-0.01025,0.0302));
#1650=CARTESIAN_POINT('',(0.005,-0.01025,0.0276));
#1651=CARTESIAN_POINT('',(1.40572419605017E-18,-0.01025,0.0302));
#1652=CARTESIAN_POINT('',(0.0022,-0.01025,0.0302));
#1653=CARTESIAN_POINT('',(0.,0.,0.0045));
#1654=CARTESIAN_POINT('',(0.,0.01025,0.0045));
#1655=CARTESIAN_POINT('',(0.,0.01025,0.0045));
#1656=CARTESIAN_POINT('',(0.005,0.01025,0.0276));
#1657=CARTESIAN_POINT('',(0.005,0.01025,0.0302));
#1658=CARTESIAN_POINT('',(1.40572419605017E-18,0.01025,0.0302));
#1659=CARTESIAN_POINT('',(-0.005,0.01025,0.0302));
#1660=CARTESIAN_POINT('',(-0.005,0.01025,0.0276));
#1661=CARTESIAN_POINT('',(-0.037,0.01025,0.0045));
#1662=CARTESIAN_POINT('',(-0.02,0.01025,0.009625));
#1663=CARTESIAN_POINT('',(-0.02,0.01025,0.01475));
#1664=CARTESIAN_POINT('',(-0.016,0.01025,0.01475));
#1665=CARTESIAN_POINT('',(-0.016,0.01025,0.01475));
#1666=CARTESIAN_POINT('',(-0.016,0.01025,0.009625));
#1667=CARTESIAN_POINT('',(1.40572419605017E-18,0.01025,0.0302));
#1668=CARTESIAN_POINT('',(0.0022,0.01025,0.0302));
#1669=CARTESIAN_POINT('',(-0.037,0.,0.0045));
#1670=CARTESIAN_POINT('',(-0.037,0.,0.00875));
#1671=CARTESIAN_POINT('',(-0.037,0.0045,0.00875));
#1672=CARTESIAN_POINT('',(-0.037,-0.0045,0.00875));
#1673=CARTESIAN_POINT('',(-0.037,-0.0045,0.00875));
#1674=CARTESIAN_POINT('',(-0.037,0.0045,0.00875));
#1675=CARTESIAN_POINT('',(-0.016,-9.95025524307223E-20,0.01475));
#1676=CARTESIAN_POINT('',(-0.02,-9.95025524307223E-20,0.01475));
#1677=CARTESIAN_POINT('',(-0.016,-9.95025524307223E-20,0.01475));
#1678=CARTESIAN_POINT('',(-0.016,-9.95025524307223E-20,0.01475));
#1679=CARTESIAN_POINT('',(-0.02,-9.95025524307223E-20,0.01475));
#1680=CARTESIAN_POINT('',(-0.016,0.,0.01475));
#1681=CARTESIAN_POINT('',(-0.02,0.,0.01475));
#1682=CARTESIAN_POINT('',(-0.016,0.,0.01475));
#1683=CARTESIAN_POINT('',(-0.02,0.,0.01475));
#1684=CARTESIAN_POINT('',(-0.0374,0.0045,0.00875));
#1685=CARTESIAN_POINT('',(-0.0378,0.0045,0.00875));
#1686=CARTESIAN_POINT('',(-0.0378,0.0045,0.00875));
#1687=CARTESIAN_POINT('',(-0.0374,0.0045,0.00875));
#1688=CARTESIAN_POINT('',(-0.0378,0.0055,0.00875));
#1689=CARTESIAN_POINT('',(-0.0378,0.0065,0.00875));
#1690=CARTESIAN_POINT('',(-0.0378,0.0065,0.00875));
#1691=CARTESIAN_POINT('',(-0.0378,0.0055,0.00875));
#1692=CARTESIAN_POINT('',(-0.0384,0.0065,0.00875));
#1693=CARTESIAN_POINT('',(-0.039,0.0065,0.00875));
#1694=CARTESIAN_POINT('',(-0.039,0.0065,0.00875));
#1695=CARTESIAN_POINT('',(-0.0384,0.0065,0.00875));
#1696=CARTESIAN_POINT('',(-0.039,1.7347234759768E-18,0.00875));
#1697=CARTESIAN_POINT('',(-0.039,-0.0065,0.00875));
#1698=CARTESIAN_POINT('',(-0.039,-0.0065,0.00875));
#1699=CARTESIAN_POINT('',(-0.039,1.7347234759768E-18,0.00875));
#1700=CARTESIAN_POINT('',(-0.0384,-0.0065,0.00875));
#1701=CARTESIAN_POINT('',(-0.0378,-0.0065,0.00875));
#1702=CARTESIAN_POINT('',(-0.0378,-0.0065,0.00875));
#1703=CARTESIAN_POINT('',(-0.0384,-0.0065,0.00875));
#1704=CARTESIAN_POINT('',(-0.0378,-0.0055,0.00875));
#1705=CARTESIAN_POINT('',(-0.0378,-0.0045,0.00875));
#1706=CARTESIAN_POINT('',(-0.0378,-0.0045,0.00875));
#1707=CARTESIAN_POINT('',(-0.0378,-0.0055,0.00875));
#1708=CARTESIAN_POINT('',(-0.0374,-0.0045,0.00875));
#1709=CARTESIAN_POINT('',(-0.0374,-0.0045,0.00875));
#1710=CARTESIAN_POINT('',(0.,0.,0.00875));
#1711=CARTESIAN_POINT('',(0.0374,-0.0045,0.00875));
#1712=CARTESIAN_POINT('',(0.0378,-0.0045,0.00875));
#1713=CARTESIAN_POINT('',(0.0378,-0.0045,0.00875));
#1714=CARTESIAN_POINT('',(0.0374,-0.0045,0.00875));
#1715=CARTESIAN_POINT('',(0.0378,-0.0055,0.00875));
#1716=CARTESIAN_POINT('',(0.0378,-0.0065,0.00875));
#1717=CARTESIAN_POINT('',(0.0378,-0.0065,0.00875));
#1718=CARTESIAN_POINT('',(0.0378,-0.0055,0.00875));
#1719=CARTESIAN_POINT('',(0.0384,-0.0065,0.00875));
#1720=CARTESIAN_POINT('',(0.039,-0.0065,0.00875));
#1721=CARTESIAN_POINT('',(0.039,-0.0065,0.00875));
#1722=CARTESIAN_POINT('',(0.0384,-0.0065,0.00875));
#1723=CARTESIAN_POINT('',(0.039,0.,0.00875));
#1724=CARTESIAN_POINT('',(0.039,0.,0.01475));
#1725=CARTESIAN_POINT('',(0.039,0.,0.01625));
#1726=CARTESIAN_POINT('',(0.039,0.0065,0.00875));
#1727=CARTESIAN_POINT('',(0.039,0.0065,0.00875));
#1728=CARTESIAN_POINT('',(0.039,0.,0.00875));
#1729=CARTESIAN_POINT('',(0.0384,0.0065,0.00875));
#1730=CARTESIAN_POINT('',(0.0378,0.0065,0.00875));
#1731=CARTESIAN_POINT('',(0.0378,0.0065,0.00875));
#1732=CARTESIAN_POINT('',(0.0384,0.0065,0.00875));
#1733=CARTESIAN_POINT('',(0.0378,0.0055,0.00875));
#1734=CARTESIAN_POINT('',(0.0378,0.0045,0.00875));
#1735=CARTESIAN_POINT('',(0.0378,0.0045,0.00875));
#1736=CARTESIAN_POINT('',(0.0378,0.0055,0.00875));
#1737=CARTESIAN_POINT('',(0.0374,0.0045,0.00875));
#1738=CARTESIAN_POINT('',(0.0374,0.0045,0.00875));
#1739=CARTESIAN_POINT('',(0.,0.,0.00875));
#1740=CARTESIAN_POINT('',(0.0474,0.,0.01475));
#1741=CARTESIAN_POINT('',(0.041,0.,0.01475));
#1742=CARTESIAN_POINT('',(0.041,-0.0015,0.01475));
#1743=CARTESIAN_POINT('',(-0.041,0.,-0.0065));
#1744=CARTESIAN_POINT('',(-0.041,0.011,0.));
#1745=CARTESIAN_POINT('',(-0.041,-0.011,-0.0065));
#1746=CARTESIAN_POINT('',(0.041,0.,-0.0065));
#1747=CARTESIAN_POINT('',(0.041,0.011,-0.0065));
#1748=CARTESIAN_POINT('',(0.041,-0.011,0.));
#1749=CARTESIAN_POINT('',(1.40572419605017E-18,-0.01025,0.0302));
#1750=CARTESIAN_POINT('',(0.005,-0.01025,0.0302));
#1751=CARTESIAN_POINT('',(-0.005,-0.01025,0.0302));
#1752=CARTESIAN_POINT('',(-0.005,-0.01025,0.0276));
#1753=CARTESIAN_POINT('',(1.40572419605017E-18,-0.01025,0.0302));
#1754=CARTESIAN_POINT('',(0.005,-0.01025,0.0276));
#1755=CARTESIAN_POINT('',(1.40572419605017E-18,0.01025,0.0302));
#1756=CARTESIAN_POINT('',(-0.005,0.01025,0.0302));
#1757=CARTESIAN_POINT('',(0.005,0.01025,0.0302));
#1758=CARTESIAN_POINT('',(0.005,0.01025,0.0276));
#1759=CARTESIAN_POINT('',(1.40572419605017E-18,0.01025,0.0302));
#1760=CARTESIAN_POINT('',(1.55402757997708E-18,0.0114896206638809,0.0302));
#1761=CARTESIAN_POINT('',(0.0022,0.0114896206638809,0.0302));
#1762=CARTESIAN_POINT('',(-0.005,0.01025,0.0276));
#1763=CARTESIAN_POINT('',(1.7347234759768E-18,0.013,0.0302));
#1764=CARTESIAN_POINT('',(0.039,0.011,-0.0065));
#1765=CARTESIAN_POINT('',(0.039,-0.011,0.025));
#1766=CARTESIAN_POINT('',(-0.039,0.011,0.025));
#1767=CARTESIAN_POINT('',(-0.039,-0.011,-0.0065));
#1768=MECHANICAL_DESIGN_GEOMETRIC_PRESENTATION_REPRESENTATION('',(#1076),
#1769);
#1769=(
GEOMETRIC_REPRESENTATION_CONTEXT(3)
GLOBAL_UNCERTAINTY_ASSIGNED_CONTEXT((#1770))
GLOBAL_UNIT_ASSIGNED_CONTEXT((#1773,#1772,#1771))
REPRESENTATION_CONTEXT('Part 1','TOP_LEVEL_ASSEMBLY_PART')
);
#1770=UNCERTAINTY_MEASURE_WITH_UNIT(LENGTH_MEASURE(1.E-8),#1773,
'DISTANCE_ACCURACY_VALUE','Maximum Tolerance applied to model');
#1771=(
NAMED_UNIT(*)
SI_UNIT($,.STERADIAN.)
SOLID_ANGLE_UNIT()
);
#1772=(
NAMED_UNIT(*)
PLANE_ANGLE_UNIT()
SI_UNIT($,.RADIAN.)
);
#1773=(
LENGTH_UNIT()
NAMED_UNIT(*)
SI_UNIT($,.METRE.)
);
#1774=PRODUCT_DEFINITION_SHAPE('','',#1775);
#1775=PRODUCT_DEFINITION('','',#1777,#1776);
#1776=PRODUCT_DEFINITION_CONTEXT('',#1783,'design');
#1777=PRODUCT_DEFINITION_FORMATION_WITH_SPECIFIED_SOURCE('','',#1779,
 .NOT_KNOWN.);
#1778=PRODUCT_RELATED_PRODUCT_CATEGORY('','',(#1779));
#1779=PRODUCT('Part 1','Part 1','Part 1',(#1781));
#1780=PRODUCT_CATEGORY('','');
#1781=PRODUCT_CONTEXT('',#1783,'mechanical');
#1782=APPLICATION_PROTOCOL_DEFINITION('international standard',
'ap242_managed_model_based_3d_engineering',2020,#1783);
#1783=APPLICATION_CONTEXT('managed model based 3d engineering');
ENDSEC;
END-ISO-10303-21;
